<?xml version="1.0" encoding="UTF-8" standalone="no"?>
<!DOCTYPE svg PUBLIC "-//W3C//DTD SVG 1.1//EN"
 "http://www.w3.org/Graphics/SVG/1.1/DTD/svg11.dtd">
<!-- Generated by graphviz version 2.26.3 (20100126.1600)
 -->
<!-- Title: controllers_diagram Pages: 1 -->
<svg width="3982pt" height="2282pt"
 viewBox="0.00 0.00 3981.90 2282.34" xmlns="http://www.w3.org/2000/svg" xmlns:xlink="http://www.w3.org/1999/xlink">
<g id="graph1" class="graph" transform="scale(1 1) rotate(0) translate(4 2278.34)">
<title>controllers_diagram</title>
<polygon fill="white" stroke="white" points="-4,5 -4,-2278.34 3978.9,-2278.34 3978.9,5 -4,5"/>
<!-- _diagram_info -->
<g id="node1" class="node"><title>_diagram_info</title>
<text text-anchor="start" x="1675" y="-78.3" font-family="Times Roman,serif" font-size="13.00">Controllers diagram</text>
<text text-anchor="start" x="1675" y="-61.3" font-family="Times Roman,serif" font-size="13.00">Date: Oct 21 2013 &#45; 03:55</text>
<text text-anchor="start" x="1675" y="-44.3" font-family="Times Roman,serif" font-size="13.00">Migration version: 20110902112234</text>
<text text-anchor="start" x="1675" y="-27.3" font-family="Times Roman,serif" font-size="13.00">Generated by RailRoady 1.1.1</text>
<text text-anchor="start" x="1675" y="-10.3" font-family="Times Roman,serif" font-size="13.00">http://railroady.prestonlee.com</text>
</g>
<!-- PagesController -->
<g id="node2" class="node"><title>PagesController</title>
<ellipse fill="none" stroke="black" cx="560.005" cy="-536.696" rx="87.889" ry="18.3848"/>
<text text-anchor="middle" x="560.005" y="-533.096" font-family="Times Roman,serif" font-size="14.00">PagesController</text>
</g>
<!-- GoogleDocsController -->
<g id="node3" class="node"><title>GoogleDocsController</title>
<ellipse fill="none" stroke="black" cx="2158.43" cy="-533.767" rx="118.087" ry="18.3848"/>
<text text-anchor="middle" x="2158.43" y="-530.167" font-family="Times Roman,serif" font-size="14.00">GoogleDocsController</text>
</g>
<!-- ApidocsController -->
<g id="node4" class="node"><title>ApidocsController</title>
<ellipse fill="none" stroke="black" cx="1333.25" cy="-138.5" rx="96.8736" ry="18.3848"/>
<text text-anchor="middle" x="1333.25" y="-134.9" font-family="Times Roman,serif" font-size="14.00">ApidocsController</text>
</g>
<!-- InvitationsController -->
<g id="node5" class="node"><title>InvitationsController</title>
<ellipse fill="none" stroke="black" cx="908.499" cy="-1239.81" rx="111.93" ry="18.3848"/>
<text text-anchor="middle" x="908.499" y="-1236.21" font-family="Times Roman,serif" font-size="14.00">InvitationsController</text>
</g>
<!-- SprocketsController -->
<g id="node6" class="node"><title>SprocketsController</title>
<ellipse fill="none" stroke="black" cx="1893.5" cy="-1447.5" rx="106.98" ry="18.3848"/>
<text text-anchor="middle" x="1893.5" y="-1443.9" font-family="Times Roman,serif" font-size="14.00">SprocketsController</text>
</g>
<!-- ActivitiesController -->
<g id="node7" class="node"><title>ActivitiesController</title>
<ellipse fill="none" stroke="black" cx="1871.08" cy="-697.689" rx="104.86" ry="18.3848"/>
<text text-anchor="middle" x="1871.08" y="-694.089" font-family="Times Roman,serif" font-size="14.00">ActivitiesController</text>
</g>
<!-- PeopleController -->
<g id="node8" class="node"><title>PeopleController</title>
<ellipse fill="none" stroke="black" cx="1011.47" cy="-725.881" rx="92.1303" ry="18.3848"/>
<text text-anchor="middle" x="1011.47" y="-722.281" font-family="Times Roman,serif" font-size="14.00">PeopleController</text>
</g>
<!-- ConversationsController -->
<g id="node9" class="node"><title>ConversationsController</title>
<ellipse fill="none" stroke="black" cx="594.775" cy="-171.016" rx="130.108" ry="18.3848"/>
<text text-anchor="middle" x="594.775" y="-167.416" font-family="Times Roman,serif" font-size="14.00">ConversationsController</text>
</g>
<!-- PublicDownloadsController -->
<g id="node10" class="node"><title>PublicDownloadsController</title>
<ellipse fill="none" stroke="black" cx="1855.93" cy="-440.971" rx="143.043" ry="18.3848"/>
<text text-anchor="middle" x="1855.93" y="-437.371" font-family="Times Roman,serif" font-size="14.00">PublicDownloadsController</text>
</g>
<!-- CommentsController -->
<g id="node11" class="node"><title>CommentsController</title>
<ellipse fill="none" stroke="black" cx="1118.48" cy="-147.604" rx="111.93" ry="18.3848"/>
<text text-anchor="middle" x="1118.48" y="-144.004" font-family="Times Roman,serif" font-size="14.00">CommentsController</text>
</g>
<!-- ResetPasswordsController -->
<g id="node12" class="node"><title>ResetPasswordsController</title>
<ellipse fill="none" stroke="black" cx="1782.54" cy="-146.445" rx="138.093" ry="18.3848"/>
<text text-anchor="middle" x="1782.54" y="-142.845" font-family="Times Roman,serif" font-size="14.00">ResetPasswordsController</text>
</g>
<!-- AuthController -->
<g id="node13" class="node"><title>AuthController</title>
<ellipse fill="none" stroke="black" cx="1356.91" cy="-417.869" rx="84.1457" ry="18.3848"/>
<text text-anchor="middle" x="1356.91" y="-414.269" font-family="Times Roman,serif" font-size="14.00">AuthController</text>
</g>
<!-- HoursController -->
<g id="node14" class="node"><title>HoursController</title>
<ellipse fill="none" stroke="black" cx="651.014" cy="-849.412" rx="89.0955" ry="18.3848"/>
<text text-anchor="middle" x="651.014" y="-845.812" font-family="Times Roman,serif" font-size="14.00">HoursController</text>
</g>
<!-- DividersController -->
<g id="node15" class="node"><title>DividersController</title>
<ellipse fill="none" stroke="black" cx="2559.15" cy="-706.128" rx="99.9096" ry="18.3848"/>
<text text-anchor="middle" x="2559.15" y="-702.528" font-family="Times Roman,serif" font-size="14.00">DividersController</text>
</g>
<!-- GuidesController -->
<g id="node16" class="node"><title>GuidesController</title>
<ellipse fill="none" stroke="black" cx="2140.5" cy="-880.056" rx="94.0452" ry="18.3848"/>
<text text-anchor="middle" x="2140.5" y="-876.456" font-family="Times Roman,serif" font-size="14.00">GuidesController</text>
</g>
<!-- ProjectsController -->
<g id="node17" class="node"><title>ProjectsController</title>
<ellipse fill="none" stroke="black" cx="1429.01" cy="-1245.33" rx="98.9949" ry="18.3848"/>
<text text-anchor="middle" x="1429.01" y="-1241.73" font-family="Times Roman,serif" font-size="14.00">ProjectsController</text>
</g>
<!-- TasksController -->
<g id="node18" class="node"><title>TasksController</title>
<ellipse fill="none" stroke="black" cx="1612.87" cy="-460.968" rx="85.7684" ry="18.3848"/>
<text text-anchor="middle" x="1612.87" y="-457.368" font-family="Times Roman,serif" font-size="14.00">TasksController</text>
</g>
<!-- MembershipsController -->
<g id="node19" class="node"><title>MembershipsController</title>
<ellipse fill="none" stroke="black" cx="2101.14" cy="-168.045" rx="123.951" ry="18.3848"/>
<text text-anchor="middle" x="2101.14" y="-164.445" font-family="Times Roman,serif" font-size="14.00">MembershipsController</text>
</g>
<!-- Public::PagesController -->
<g id="node20" class="node"><title>Public::PagesController</title>
<ellipse fill="none" stroke="black" cx="598.671" cy="-1203.58" rx="123.243" ry="18.3848"/>
<text text-anchor="middle" x="598.671" y="-1199.98" font-family="Times Roman,serif" font-size="14.00">Public::PagesController</text>
</g>
<!-- Public::ConversationsController -->
<g id="node21" class="node"><title>Public::ConversationsController</title>
<ellipse fill="none" stroke="black" cx="166" cy="-1162.12" rx="164.756" ry="18.3848"/>
<text text-anchor="middle" x="166" y="-1158.52" font-family="Times Roman,serif" font-size="14.00">Public::ConversationsController</text>
</g>
<!-- Public::PublicController -->
<g id="node22" class="node"><title>Public::PublicController</title>
<ellipse fill="none" stroke="black" cx="164.187" cy="-713.773" rx="123.951" ry="18.3848"/>
<text text-anchor="middle" x="164.187" y="-710.173" font-family="Times Roman,serif" font-size="14.00">Public::PublicController</text>
</g>
<!-- Public::PublicController&#45;&gt;Public::PagesController -->
<g id="edge36" class="edge"><title>Public::PublicController&#45;&gt;Public::PagesController</title>
<path fill="none" stroke="black" d="M180.689,-732.376C249.589,-810.049 513.893,-1108 582.385,-1185.22"/>
</g>
<!-- Public::PublicController&#45;&gt;Public::ConversationsController -->
<g id="edge38" class="edge"><title>Public::PublicController&#45;&gt;Public::ConversationsController</title>
<path fill="none" stroke="black" d="M164.263,-732.467C164.557,-805.388 165.629,-1070.29 165.924,-1143.35"/>
</g>
<!-- Public::ProjectsController -->
<g id="node23" class="node"><title>Public::ProjectsController</title>
<ellipse fill="none" stroke="black" cx="156.056" cy="-239.433" rx="133.851" ry="18.3848"/>
<text text-anchor="middle" x="156.056" y="-235.833" font-family="Times Roman,serif" font-size="14.00">Public::ProjectsController</text>
</g>
<!-- Public::PublicController&#45;&gt;Public::ProjectsController -->
<g id="edge42" class="edge"><title>Public::PublicController&#45;&gt;Public::ProjectsController</title>
<path fill="none" stroke="black" d="M163.868,-695.179C162.569,-619.384 157.68,-334.186 156.376,-258.156"/>
</g>
<!-- FoldersController -->
<g id="node24" class="node"><title>FoldersController</title>
<ellipse fill="none" stroke="black" cx="859.614" cy="-527.024" rx="94.7523" ry="18.3848"/>
<text text-anchor="middle" x="859.614" y="-523.424" font-family="Times Roman,serif" font-size="14.00">FoldersController</text>
</g>
<!-- ApplicationController -->
<g id="node25" class="node"><title>ApplicationController</title>
<ellipse fill="none" stroke="black" cx="1409.74" cy="-813.115" rx="113.844" ry="18.3848"/>
<text text-anchor="middle" x="1409.74" y="-809.515" font-family="Times Roman,serif" font-size="14.00">ApplicationController</text>
</g>
<!-- ApplicationController&#45;&gt;PagesController -->
<g id="edge2" class="edge"><title>ApplicationController&#45;&gt;PagesController</title>
<path fill="none" stroke="black" d="M1358.81,-796.549C1206.55,-747.018 756.166,-600.508 607.916,-552.282"/>
</g>
<!-- ApplicationController&#45;&gt;GoogleDocsController -->
<g id="edge4" class="edge"><title>ApplicationController&#45;&gt;GoogleDocsController</title>
<path fill="none" stroke="black" d="M1428.76,-794.709C1447.05,-777.823 1476.07,-753.047 1504.84,-736.858 1520.87,-727.842 1526.29,-728.552 1543.72,-722.704 1747.74,-654.256 1993.01,-581.772 2101.76,-550.133"/>
</g>
<!-- ApplicationController&#45;&gt;ApidocsController -->
<g id="edge6" class="edge"><title>ApplicationController&#45;&gt;ApidocsController</title>
<path fill="none" stroke="black" d="M1399.03,-794.566C1368.13,-739.373 1280.38,-570.522 1271.32,-417.679 1265.38,-317.568 1307.37,-201.623 1325.35,-157.162"/>
</g>
<!-- ApplicationController&#45;&gt;InvitationsController -->
<g id="edge8" class="edge"><title>ApplicationController&#45;&gt;InvitationsController</title>
<path fill="none" stroke="black" d="M1377.32,-830.889C1333.18,-855.117 1251.74,-899.92 1182.47,-938.57 1171.25,-944.831 1167.24,-944.642 1157.29,-952.772 1052.09,-1038.73 955.1,-1172.21 921.225,-1221.07"/>
</g>
<!-- ApplicationController&#45;&gt;ActivitiesController -->
<g id="edge10" class="edge"><title>ApplicationController&#45;&gt;ActivitiesController</title>
<path fill="none" stroke="black" d="M1493.25,-800.433C1557.31,-789.827 1647.61,-772.973 1725.16,-751.412 1742.87,-746.487 1746.77,-743.591 1764.03,-737.259 1784.31,-729.82 1806.72,-721.542 1825.78,-714.489"/>
</g>
<!-- ApplicationController&#45;&gt;PeopleController -->
<g id="edge12" class="edge"><title>ApplicationController&#45;&gt;PeopleController</title>
<path fill="none" stroke="black" d="M1341.72,-798.219C1266.63,-781.771 1146.76,-755.514 1073.96,-739.568"/>
</g>
<!-- ApplicationController&#45;&gt;ConversationsController -->
<g id="edge14" class="edge"><title>ApplicationController&#45;&gt;ConversationsController</title>
<path fill="none" stroke="black" d="M1366.21,-795.933C1310.18,-772.808 1211.02,-728.418 1135.06,-675.584 1017.31,-593.69 693.352,-270.204 612.994,-189.388"/>
</g>
<!-- ApplicationController&#45;&gt;PublicDownloadsController -->
<g id="edge16" class="edge"><title>ApplicationController&#45;&gt;PublicDownloadsController</title>
<path fill="none" stroke="black" d="M1431.56,-794.914C1507.23,-731.8 1757.88,-522.754 1833.89,-459.357"/>
</g>
<!-- ApplicationController&#45;&gt;CommentsController -->
<g id="edge18" class="edge"><title>ApplicationController&#45;&gt;CommentsController</title>
<path fill="none" stroke="black" d="M1401.64,-794.621C1359.84,-699.102 1168.71,-262.38 1126.67,-166.325"/>
</g>
<!-- ApplicationController&#45;&gt;ResetPasswordsController -->
<g id="edge20" class="edge"><title>ApplicationController&#45;&gt;ResetPasswordsController</title>
<path fill="none" stroke="black" d="M1430.17,-794.71C1483.17,-745.816 1626.12,-606.449 1700.47,-461.066 1753.68,-357.031 1774.5,-215.534 1780.52,-165.178"/>
</g>
<!-- ApplicationController&#45;&gt;AuthController -->
<g id="edge22" class="edge"><title>ApplicationController&#45;&gt;AuthController</title>
<path fill="none" stroke="black" d="M1403.57,-794.374C1392.38,-759.296 1369.05,-681.131 1360.18,-613.247 1351.77,-548.829 1354.11,-471.458 1355.83,-436.56"/>
</g>
<!-- ApplicationController&#45;&gt;HoursController -->
<g id="edge24" class="edge"><title>ApplicationController&#45;&gt;HoursController</title>
<path fill="none" stroke="black" d="M1300.22,-818.355C1148.28,-825.623 876.594,-838.62 737.806,-845.26"/>
</g>
<!-- ApplicationController&#45;&gt;DividersController -->
<g id="edge26" class="edge"><title>ApplicationController&#45;&gt;DividersController</title>
<path fill="none" stroke="black" d="M1508.73,-803.901C1729.27,-783.373 2258.17,-734.144 2469.6,-714.464"/>
</g>
<!-- ApplicationController&#45;&gt;GuidesController -->
<g id="edge28" class="edge"><title>ApplicationController&#45;&gt;GuidesController</title>
<path fill="none" stroke="black" d="M1509.05,-822.213C1653.44,-835.44 1918.91,-859.757 2055.05,-872.228"/>
</g>
<!-- ApplicationController&#45;&gt;ProjectsController -->
<g id="edge30" class="edge"><title>ApplicationController&#45;&gt;ProjectsController</title>
<path fill="none" stroke="black" d="M1408.4,-831.642C1406.28,-863.424 1402.56,-930.384 1404.38,-986.977 1407.27,-1077.04 1420.68,-1184.07 1426.41,-1226.58"/>
</g>
<!-- ApplicationController&#45;&gt;TasksController -->
<g id="edge32" class="edge"><title>ApplicationController&#45;&gt;TasksController</title>
<path fill="none" stroke="black" d="M1422.58,-794.522C1446.41,-759.689 1498.6,-681.916 1537.38,-613.278 1563.95,-566.256 1591.11,-508.63 1604.44,-479.589"/>
</g>
<!-- ApplicationController&#45;&gt;MembershipsController -->
<g id="edge34" class="edge"><title>ApplicationController&#45;&gt;MembershipsController</title>
<path fill="none" stroke="black" d="M1427.21,-794.699C1474.72,-744.098 1608.78,-597.617 1700.47,-461.066 1706.17,-452.585 1704.55,-448.448 1711.34,-440.81 1818.99,-319.622 1990.66,-223.942 2064.94,-185.881"/>
</g>
<!-- ApplicationController&#45;&gt;Public::PublicController -->
<g id="edge40" class="edge"><title>ApplicationController&#45;&gt;Public::PublicController</title>
<path fill="none" stroke="black" d="M1307.28,-804.944C1075.38,-786.448 512,-741.514 273.615,-722.501"/>
</g>
<!-- ApplicationController&#45;&gt;FoldersController -->
<g id="edge44" class="edge"><title>ApplicationController&#45;&gt;FoldersController</title>
<path fill="none" stroke="black" d="M1373.56,-795.441C1320.86,-769.59 1219.99,-719.74 1135.06,-675.584 1046.12,-629.346 942.306,-572.592 891.257,-544.496"/>
</g>
<!-- NotesController -->
<g id="node26" class="node"><title>NotesController</title>
<ellipse fill="none" stroke="black" cx="2060.62" cy="-1229.84" rx="87.889" ry="18.3848"/>
<text text-anchor="middle" x="2060.62" y="-1226.24" font-family="Times Roman,serif" font-size="14.00">NotesController</text>
</g>
<!-- ApplicationController&#45;&gt;NotesController -->
<g id="edge46" class="edge"><title>ApplicationController&#45;&gt;NotesController</title>
<path fill="none" stroke="black" d="M1438.12,-831.29C1545.54,-900.062 1926.4,-1143.91 2032.82,-1212.04"/>
</g>
<!-- HooksController -->
<g id="node27" class="node"><title>HooksController</title>
<ellipse fill="none" stroke="black" cx="1177.24" cy="-1238.45" rx="90.0096" ry="18.3848"/>
<text text-anchor="middle" x="1177.24" y="-1234.85" font-family="Times Roman,serif" font-size="14.00">HooksController</text>
</g>
<!-- ApplicationController&#45;&gt;HooksController -->
<g id="edge48" class="edge"><title>ApplicationController&#45;&gt;HooksController</title>
<path fill="none" stroke="black" d="M1399.6,-831.665C1361.32,-901.698 1225.8,-1149.61 1187.43,-1219.8"/>
</g>
<!-- WatchersController -->
<g id="node28" class="node"><title>WatchersController</title>
<ellipse fill="none" stroke="black" cx="1542.95" cy="-165.462" rx="106.773" ry="18.3848"/>
<text text-anchor="middle" x="1542.95" y="-161.862" font-family="Times Roman,serif" font-size="14.00">WatchersController</text>
</g>
<!-- ApplicationController&#45;&gt;WatchersController -->
<g id="edge50" class="edge"><title>ApplicationController&#45;&gt;WatchersController</title>
<path fill="none" stroke="black" d="M1427.52,-794.728C1457.94,-761.716 1518.54,-688.769 1537.38,-613.278 1553.83,-547.35 1525.94,-528.817 1525.27,-460.869 1524.25,-356.064 1536.09,-230.705 1540.94,-184.103"/>
</g>
<!-- OauthClientsController -->
<g id="node29" class="node"><title>OauthClientsController</title>
<ellipse fill="none" stroke="black" cx="2528.58" cy="-1170.31" rx="123.951" ry="18.3848"/>
<text text-anchor="middle" x="2528.58" y="-1166.71" font-family="Times Roman,serif" font-size="14.00">OauthClientsController</text>
</g>
<!-- ApplicationController&#45;&gt;OauthClientsController -->
<g id="edge52" class="edge"><title>ApplicationController&#45;&gt;OauthClientsController</title>
<path fill="none" stroke="black" d="M1470.01,-828.887C1559.58,-852.596 1732.9,-899.529 1878.53,-945.218 2106.72,-1016.81 2375.67,-1114.13 2481.99,-1153.12"/>
</g>
<!-- UploadsController -->
<g id="node30" class="node"><title>UploadsController</title>
<ellipse fill="none" stroke="black" cx="1235.65" cy="-675.715" rx="98.9949" ry="18.3848"/>
<text text-anchor="middle" x="1235.65" y="-672.115" font-family="Times Roman,serif" font-size="14.00">UploadsController</text>
</g>
<!-- ApplicationController&#45;&gt;UploadsController -->
<g id="edge54" class="edge"><title>ApplicationController&#45;&gt;UploadsController</title>
<path fill="none" stroke="black" d="M1386.62,-794.87C1353.23,-768.517 1291.88,-720.089 1258.59,-693.817"/>
</g>
<!-- TaskListsController -->
<g id="node31" class="node"><title>TaskListsController</title>
<ellipse fill="none" stroke="black" cx="1117.34" cy="-452.104" rx="103.945" ry="18.3848"/>
<text text-anchor="middle" x="1117.34" y="-448.504" font-family="Times Roman,serif" font-size="14.00">TaskListsController</text>
</g>
<!-- ApplicationController&#45;&gt;TaskListsController -->
<g id="edge56" class="edge"><title>ApplicationController&#45;&gt;TaskListsController</title>
<path fill="none" stroke="black" d="M1401.76,-794.377C1389.67,-767.002 1365.04,-715.075 1336.25,-675.845 1274.05,-591.063 1180.81,-506.619 1138.99,-470.44"/>
</g>
<!-- SearchController -->
<g id="node32" class="node"><title>SearchController</title>
<ellipse fill="none" stroke="black" cx="2541.47" cy="-231.366" rx="94.0452" ry="18.3848"/>
<text text-anchor="middle" x="2541.47" y="-227.766" font-family="Times Roman,serif" font-size="14.00">SearchController</text>
</g>
<!-- ApplicationController&#45;&gt;SearchController -->
<g id="edge58" class="edge"><title>ApplicationController&#45;&gt;SearchController</title>
<path fill="none" stroke="black" d="M1429.89,-794.752C1448.49,-778.355 1477.31,-754.302 1504.84,-736.858 1869.33,-505.916 2354.74,-305.584 2499.21,-247.977"/>
</g>
<!-- TeamboxDatasController -->
<g id="node33" class="node"><title>TeamboxDatasController</title>
<ellipse fill="none" stroke="black" cx="1536.98" cy="-987.047" rx="131.022" ry="18.3848"/>
<text text-anchor="middle" x="1536.98" y="-983.447" font-family="Times Roman,serif" font-size="14.00">TeamboxDatasController</text>
</g>
<!-- ApplicationController&#45;&gt;TeamboxDatasController -->
<g id="edge60" class="edge"><title>ApplicationController&#45;&gt;TeamboxDatasController</title>
<path fill="none" stroke="black" d="M1423.35,-831.729C1447.84,-865.206 1499.04,-935.188 1523.46,-968.568"/>
</g>
<!-- OrganizationsController -->
<g id="node34" class="node"><title>OrganizationsController</title>
<ellipse fill="none" stroke="black" cx="1634.44" cy="-737.058" rx="128.193" ry="18.3848"/>
<text text-anchor="middle" x="1634.44" y="-733.458" font-family="Times Roman,serif" font-size="14.00">OrganizationsController</text>
</g>
<!-- ApplicationController&#45;&gt;OrganizationsController -->
<g id="edge62" class="edge"><title>ApplicationController&#45;&gt;OrganizationsController</title>
<path fill="none" stroke="black" d="M1459.05,-796.424C1496.13,-783.874 1546.75,-766.741 1584.08,-754.105"/>
</g>
<!-- TaskListTemplatesController -->
<g id="node52" class="node"><title>TaskListTemplatesController</title>
<ellipse fill="none" stroke="black" cx="889.573" cy="-187.81" rx="147.785" ry="18.3848"/>
<text text-anchor="middle" x="889.573" y="-184.21" font-family="Times Roman,serif" font-size="14.00">TaskListTemplatesController</text>
</g>
<!-- ApplicationController&#45;&gt;TaskListTemplatesController -->
<g id="edge98" class="edge"><title>ApplicationController&#45;&gt;TaskListTemplatesController</title>
<path fill="none" stroke="black" d="M1403.36,-794.633C1383.42,-738.596 1317.8,-567.401 1222.94,-452.218 1130.9,-340.454 984.381,-244.838 920.758,-206.157"/>
</g>
<!-- StaticPagesController -->
<g id="node53" class="node"><title>StaticPagesController</title>
<ellipse fill="none" stroke="black" cx="966.79" cy="-951.689" rx="116.172" ry="18.3848"/>
<text text-anchor="middle" x="966.79" y="-948.089" font-family="Times Roman,serif" font-size="14.00">StaticPagesController</text>
</g>
<!-- ApplicationController&#45;&gt;StaticPagesController -->
<g id="edge100" class="edge"><title>ApplicationController&#45;&gt;StaticPagesController</title>
<path fill="none" stroke="black" d="M1357.19,-829.556C1272.05,-856.19 1104.93,-908.473 1019.62,-935.162"/>
</g>
<!-- OauthController -->
<g id="node54" class="node"><title>OauthController</title>
<ellipse fill="none" stroke="black" cx="1812.63" cy="-959.337" rx="91.2168" ry="18.3848"/>
<text text-anchor="middle" x="1812.63" y="-955.737" font-family="Times Roman,serif" font-size="14.00">OauthController</text>
</g>
<!-- ApplicationController&#45;&gt;OauthController -->
<g id="edge102" class="edge"><title>ApplicationController&#45;&gt;OauthController</title>
<path fill="none" stroke="black" d="M1456.35,-830.032C1534.54,-858.411 1691.11,-915.234 1767.97,-943.131"/>
</g>
<!-- UsersController -->
<g id="node55" class="node"><title>UsersController</title>
<ellipse fill="none" stroke="black" cx="1448.78" cy="-613.262" rx="87.1802" ry="18.3848"/>
<text text-anchor="middle" x="1448.78" y="-609.662" font-family="Times Roman,serif" font-size="14.00">UsersController</text>
</g>
<!-- ApplicationController&#45;&gt;UsersController -->
<g id="edge104" class="edge"><title>ApplicationController&#45;&gt;UsersController</title>
<path fill="none" stroke="black" d="M1413.41,-794.314C1420.87,-756.126 1437.72,-669.891 1445.14,-631.869"/>
</g>
<!-- SitesController -->
<g id="node56" class="node"><title>SitesController</title>
<ellipse fill="none" stroke="black" cx="1242.89" cy="-952.809" rx="84.1457" ry="18.3848"/>
<text text-anchor="middle" x="1242.89" y="-949.209" font-family="Times Roman,serif" font-size="14.00">SitesController</text>
</g>
<!-- ApplicationController&#45;&gt;SitesController -->
<g id="edge106" class="edge"><title>ApplicationController&#45;&gt;SitesController</title>
<path fill="none" stroke="black" d="M1387.92,-831.378C1355.86,-858.224 1296.36,-908.042 1264.45,-934.763"/>
</g>
<!-- SessionsController -->
<g id="node57" class="node"><title>SessionsController</title>
<ellipse fill="none" stroke="black" cx="1715.45" cy="-1249.96" rx="101.823" ry="18.3848"/>
<text text-anchor="middle" x="1715.45" y="-1246.36" font-family="Times Roman,serif" font-size="14.00">SessionsController</text>
</g>
<!-- ApplicationController&#45;&gt;SessionsController -->
<g id="edge108" class="edge"><title>ApplicationController&#45;&gt;SessionsController</title>
<path fill="none" stroke="black" d="M1454.99,-830.113C1514.49,-854.963 1617.54,-907.136 1669.58,-987.118 1720.98,-1066.13 1719.65,-1185.61 1716.94,-1231.3"/>
</g>
<!-- ApiV1::PagesController -->
<g id="node35" class="node"><title>ApiV1::PagesController</title>
<ellipse fill="none" stroke="black" cx="2147.5" cy="-1854.85" rx="123.243" ry="18.3848"/>
<text text-anchor="middle" x="2147.5" y="-1851.25" font-family="Times Roman,serif" font-size="14.00">ApiV1::PagesController</text>
</g>
<!-- ApiV1::AppLinksController -->
<g id="node36" class="node"><title>ApiV1::AppLinksController</title>
<ellipse fill="none" stroke="black" cx="3518.82" cy="-1853.44" rx="138.801" ry="18.3848"/>
<text text-anchor="middle" x="3518.82" y="-1849.84" font-family="Times Roman,serif" font-size="14.00">ApiV1::AppLinksController</text>
</g>
<!-- ApiV1::InvitationsController -->
<g id="node37" class="node"><title>ApiV1::InvitationsController</title>
<ellipse fill="none" stroke="black" cx="2664.48" cy="-1447.5" rx="147.785" ry="18.3848"/>
<text text-anchor="middle" x="2664.48" y="-1443.9" font-family="Times Roman,serif" font-size="14.00">ApiV1::InvitationsController</text>
</g>
<!-- ApiV1::ActivitiesController -->
<g id="node38" class="node"><title>ApiV1::ActivitiesController</title>
<ellipse fill="none" stroke="black" cx="2656.37" cy="-2252.25" rx="140.007" ry="18.3848"/>
<text text-anchor="middle" x="2656.37" y="-2248.65" font-family="Times Roman,serif" font-size="14.00">ApiV1::ActivitiesController</text>
</g>
<!-- ApiV1::PeopleController -->
<g id="node39" class="node"><title>ApiV1::PeopleController</title>
<ellipse fill="none" stroke="black" cx="3198.42" cy="-1994.44" rx="126.78" ry="18.3848"/>
<text text-anchor="middle" x="3198.42" y="-1990.84" font-family="Times Roman,serif" font-size="14.00">ApiV1::PeopleController</text>
</g>
<!-- ApiV1::ConversationsController -->
<g id="node40" class="node"><title>ApiV1::ConversationsController</title>
<ellipse fill="none" stroke="black" cx="2548.62" cy="-1980.05" rx="164.756" ry="18.3848"/>
<text text-anchor="middle" x="2548.62" y="-1976.45" font-family="Times Roman,serif" font-size="14.00">ApiV1::ConversationsController</text>
</g>
<!-- ApiV1::CommentsController -->
<g id="node41" class="node"><title>ApiV1::CommentsController</title>
<ellipse fill="none" stroke="black" cx="2189.42" cy="-1488.11" rx="147.785" ry="18.3848"/>
<text text-anchor="middle" x="2189.42" y="-1484.51" font-family="Times Roman,serif" font-size="14.00">ApiV1::CommentsController</text>
</g>
<!-- ApiV1::DividersController -->
<g id="node42" class="node"><title>ApiV1::DividersController</title>
<ellipse fill="none" stroke="black" cx="3837.9" cy="-1575.15" rx="135.057" ry="18.3848"/>
<text text-anchor="middle" x="3837.9" y="-1571.55" font-family="Times Roman,serif" font-size="14.00">ApiV1::DividersController</text>
</g>
<!-- ApiV1::ProjectsController -->
<g id="node43" class="node"><title>ApiV1::ProjectsController</title>
<ellipse fill="none" stroke="black" cx="2526.53" cy="-1704.78" rx="133.851" ry="18.3848"/>
<text text-anchor="middle" x="2526.53" y="-1701.18" font-family="Times Roman,serif" font-size="14.00">ApiV1::ProjectsController</text>
</g>
<!-- ApiV1::TasksController -->
<g id="node44" class="node"><title>ApiV1::TasksController</title>
<ellipse fill="none" stroke="black" cx="3047.25" cy="-1453.96" rx="121.122" ry="18.3848"/>
<text text-anchor="middle" x="3047.25" y="-1450.36" font-family="Times Roman,serif" font-size="14.00">ApiV1::TasksController</text>
</g>
<!-- ApiV1::MembershipsController -->
<g id="node45" class="node"><title>ApiV1::MembershipsController</title>
<ellipse fill="none" stroke="black" cx="2860" cy="-1717.15" rx="159.099" ry="18.3848"/>
<text text-anchor="middle" x="2860" y="-1713.55" font-family="Times Roman,serif" font-size="14.00">ApiV1::MembershipsController</text>
</g>
<!-- ApiV1::NotesController -->
<g id="node46" class="node"><title>ApiV1::NotesController</title>
<ellipse fill="none" stroke="black" cx="2193.62" cy="-2216.22" rx="123.243" ry="18.3848"/>
<text text-anchor="middle" x="2193.62" y="-2212.62" font-family="Times Roman,serif" font-size="14.00">ApiV1::NotesController</text>
</g>
<!-- ApiV1::UploadsController -->
<g id="node47" class="node"><title>ApiV1::UploadsController</title>
<ellipse fill="none" stroke="black" cx="3837.7" cy="-2131.16" rx="133.143" ry="18.3848"/>
<text text-anchor="middle" x="3837.7" y="-2127.56" font-family="Times Roman,serif" font-size="14.00">ApiV1::UploadsController</text>
</g>
<!-- ApiV1::TaskListsController -->
<g id="node48" class="node"><title>ApiV1::TaskListsController</title>
<ellipse fill="none" stroke="black" cx="3429.45" cy="-2230.97" rx="138.801" ry="18.3848"/>
<text text-anchor="middle" x="3429.45" y="-2227.37" font-family="Times Roman,serif" font-size="14.00">ApiV1::TaskListsController</text>
</g>
<!-- ApiV1::SearchController -->
<g id="node49" class="node"><title>ApiV1::SearchController</title>
<ellipse fill="none" stroke="black" cx="3036.23" cy="-2254.84" rx="128.193" ry="18.3848"/>
<text text-anchor="middle" x="3036.23" y="-2251.24" font-family="Times Roman,serif" font-size="14.00">ApiV1::SearchController</text>
</g>
<!-- ApiV1::OrganizationsController -->
<g id="node50" class="node"><title>ApiV1::OrganizationsController</title>
<ellipse fill="none" stroke="black" cx="3182.89" cy="-1728.28" rx="164.049" ry="18.3848"/>
<text text-anchor="middle" x="3182.89" y="-1724.68" font-family="Times Roman,serif" font-size="14.00">ApiV1::OrganizationsController</text>
</g>
<!-- ApiV1::UsersController -->
<g id="node51" class="node"><title>ApiV1::UsersController</title>
<ellipse fill="none" stroke="black" cx="3429.55" cy="-1479.96" rx="121.83" ry="18.3848"/>
<text text-anchor="middle" x="3429.55" y="-1476.36" font-family="Times Roman,serif" font-size="14.00">ApiV1::UsersController</text>
</g>
<!-- ApiV1::APIController -->
<g id="node89" class="node"><title>ApiV1::APIController</title>
<ellipse fill="none" stroke="black" cx="2883.36" cy="-1982.07" rx="111.222" ry="18.3848"/>
<text text-anchor="middle" x="2883.36" y="-1978.47" font-family="Times Roman,serif" font-size="14.00">ApiV1::APIController</text>
</g>
<!-- ApiV1::APIController&#45;&gt;ApiV1::PagesController -->
<g id="edge64" class="edge"><title>ApiV1::APIController&#45;&gt;ApiV1::PagesController</title>
<path fill="none" stroke="black" d="M2806,-1968.69C2665.78,-1944.45 2370.97,-1893.48 2228.28,-1868.81"/>
</g>
<!-- ApiV1::APIController&#45;&gt;ApiV1::AppLinksController -->
<g id="edge66" class="edge"><title>ApiV1::APIController&#45;&gt;ApiV1::AppLinksController</title>
<path fill="none" stroke="black" d="M2954.1,-1967.75C3074.44,-1943.39 3318.02,-1894.08 3442.23,-1868.94"/>
</g>
<!-- ApiV1::APIController&#45;&gt;ApiV1::InvitationsController -->
<g id="edge68" class="edge"><title>ApiV1::APIController&#45;&gt;ApiV1::InvitationsController</title>
<path fill="none" stroke="black" d="M2865.74,-1963.66C2827.96,-1922.97 2739.38,-1820.75 2699.41,-1717 2665.06,-1627.85 2663.2,-1511.11 2663.92,-1466.21"/>
</g>
<!-- ApiV1::APIController&#45;&gt;ApiV1::ActivitiesController -->
<g id="edge70" class="edge"><title>ApiV1::APIController&#45;&gt;ApiV1::ActivitiesController</title>
<path fill="none" stroke="black" d="M2867.76,-2000.64C2826.29,-2049.99 2713.68,-2184.04 2672.08,-2233.55"/>
</g>
<!-- ApiV1::APIController&#45;&gt;ApiV1::PeopleController -->
<g id="edge72" class="edge"><title>ApiV1::APIController&#45;&gt;ApiV1::PeopleController</title>
<path fill="none" stroke="black" d="M2991.79,-1986.32C3018.84,-1987.39 3048.04,-1988.53 3075.74,-1989.62"/>
</g>
<!-- ApiV1::APIController&#45;&gt;ApiV1::ConversationsController -->
<g id="edge74" class="edge"><title>ApiV1::APIController&#45;&gt;ApiV1::ConversationsController</title>
<path fill="none" stroke="black" d="M2772.36,-1981.4C2753.43,-1981.28 2733.4,-1981.16 2713.42,-1981.04"/>
</g>
<!-- ApiV1::APIController&#45;&gt;ApiV1::CommentsController -->
<g id="edge76" class="edge"><title>ApiV1::APIController&#45;&gt;ApiV1::CommentsController</title>
<path fill="none" stroke="black" d="M2843.48,-1964.76C2756.26,-1925.83 2544.13,-1825.32 2390.93,-1704.65 2311.05,-1641.73 2234.19,-1546.61 2203.46,-1506.73"/>
</g>
<!-- ApiV1::APIController&#45;&gt;ApiV1::DividersController -->
<g id="edge78" class="edge"><title>ApiV1::APIController&#45;&gt;ApiV1::DividersController</title>
<path fill="none" stroke="black" d="M2924.07,-1964.71C3080.11,-1898.19 3639.16,-1659.87 3796.45,-1592.82"/>
</g>
<!-- ApiV1::APIController&#45;&gt;ApiV1::ProjectsController -->
<g id="edge80" class="edge"><title>ApiV1::APIController&#45;&gt;ApiV1::ProjectsController</title>
<path fill="none" stroke="black" d="M2859.95,-1963.87C2795.29,-1913.63 2614.79,-1773.36 2550.03,-1723.04"/>
</g>
<!-- ApiV1::APIController&#45;&gt;ApiV1::TasksController -->
<g id="edge82" class="edge"><title>ApiV1::APIController&#45;&gt;ApiV1::TasksController</title>
<path fill="none" stroke="black" d="M2896.16,-1963.54C2924.24,-1921.79 2991.11,-1816.3 3020.6,-1717.31 3047.03,-1628.57 3048.36,-1516.37 3047.73,-1472.62"/>
</g>
<!-- ApiV1::APIController&#45;&gt;ApiV1::MembershipsController -->
<g id="edge84" class="edge"><title>ApiV1::APIController&#45;&gt;ApiV1::MembershipsController</title>
<path fill="none" stroke="black" d="M2881.72,-1963.44C2877.43,-1914.8 2865.93,-1784.38 2861.64,-1735.76"/>
</g>
<!-- ApiV1::APIController&#45;&gt;ApiV1::NotesController -->
<g id="edge86" class="edge"><title>ApiV1::APIController&#45;&gt;ApiV1::NotesController</title>
<path fill="none" stroke="black" d="M2834.31,-1998.72C2707.82,-2041.66 2371.56,-2155.81 2243.81,-2199.18"/>
</g>
<!-- ApiV1::APIController&#45;&gt;ApiV1::UploadsController -->
<g id="edge88" class="edge"><title>ApiV1::APIController&#45;&gt;ApiV1::UploadsController</title>
<path fill="none" stroke="black" d="M2964.73,-1994.78C3142.55,-2022.56 3564.62,-2088.5 3748.97,-2117.3"/>
</g>
<!-- ApiV1::APIController&#45;&gt;ApiV1::TaskListsController -->
<g id="edge90" class="edge"><title>ApiV1::APIController&#45;&gt;ApiV1::TaskListsController</title>
<path fill="none" stroke="black" d="M2921.76,-1999.57C3021.79,-2045.16 3289.58,-2167.21 3390.36,-2213.15"/>
</g>
<!-- ApiV1::APIController&#45;&gt;ApiV1::SearchController -->
<g id="edge92" class="edge"><title>ApiV1::APIController&#45;&gt;ApiV1::SearchController</title>
<path fill="none" stroke="black" d="M2893.87,-2000.82C2921.86,-2050.77 2998,-2186.63 3025.85,-2236.32"/>
</g>
<!-- ApiV1::APIController&#45;&gt;ApiV1::OrganizationsController -->
<g id="edge94" class="edge"><title>ApiV1::APIController&#45;&gt;ApiV1::OrganizationsController</title>
<path fill="none" stroke="black" d="M2904.9,-1963.81C2960.03,-1917.1 3105.78,-1793.61 3161.14,-1746.7"/>
</g>
<!-- ApiV1::APIController&#45;&gt;ApiV1::UsersController -->
<g id="edge96" class="edge"><title>ApiV1::APIController&#45;&gt;ApiV1::UsersController</title>
<path fill="none" stroke="black" d="M2889.27,-1963.39C2904.31,-1918.29 2947.82,-1801.76 3017.29,-1728.25 3127.04,-1612.11 3302.9,-1530.92 3384.84,-1497.29"/>
</g>
</g>
</svg>
