<?xml version="1.0" encoding="UTF-8" standalone="no"?>
<!DOCTYPE svg PUBLIC "-//W3C//DTD SVG 1.1//EN"
 "http://www.w3.org/Graphics/SVG/1.1/DTD/svg11.dtd">
<!-- Generated by graphviz version 2.26.3 (20100126.1600)
 -->
<!-- Title: models_diagram Pages: 1 -->
<svg width="4437pt" height="942pt"
 viewBox="0.00 0.00 4437.00 942.00" xmlns="http://www.w3.org/2000/svg" xmlns:xlink="http://www.w3.org/1999/xlink">
<g id="graph1" class="graph" transform="scale(1 1) rotate(0) translate(4 938)">
<title>models_diagram</title>
<polygon fill="white" stroke="white" points="-4,5 -4,-938 4434,-938 4434,5 -4,5"/>
<!-- _diagram_info -->
<g id="node1" class="node"><title>_diagram_info</title>
<text text-anchor="start" x="8" y="-917.8" font-family="Times Roman,serif" font-size="13.00">Models diagram</text>
<text text-anchor="start" x="8" y="-900.8" font-family="Times Roman,serif" font-size="13.00">Date: Oct 21 2013 &#45; 03:55</text>
<text text-anchor="start" x="8" y="-883.8" font-family="Times Roman,serif" font-size="13.00">Migration version: 20110902112234</text>
<text text-anchor="start" x="8" y="-866.8" font-family="Times Roman,serif" font-size="13.00">Generated by RailRoady 1.1.1</text>
<text text-anchor="start" x="8" y="-849.8" font-family="Times Roman,serif" font-size="13.00">http://railroady.prestonlee.com</text>
</g>
<!-- Ability -->
<g id="node2" class="node"><title>Ability</title>
<polygon fill="none" stroke="black" points="341,-801 281,-801 281,-765 341,-765 341,-801"/>
<text text-anchor="middle" x="311" y="-779.4" font-family="Times Roman,serif" font-size="14.00">Ability</text>
</g>
<!-- PageSlot -->
<g id="node3" class="node"><title>PageSlot</title>
<ellipse fill="none" stroke="black" cx="639" cy="-19" rx="53.9477" ry="18.3848"/>
<text text-anchor="middle" x="639" y="-15.4" font-family="Times Roman,serif" font-size="14.00">PageSlot</text>
</g>
<!-- Conversation -->
<g id="node4" class="node"><title>Conversation</title>
<ellipse fill="none" stroke="black" cx="1207" cy="-707" rx="75.8684" ry="18.3848"/>
<text text-anchor="middle" x="1207" y="-703.4" font-family="Times Roman,serif" font-size="14.00">Conversation</text>
</g>
<!-- User -->
<g id="node9" class="node"><title>User</title>
<ellipse fill="none" stroke="black" cx="1286" cy="-615" rx="33.9411" ry="18.3848"/>
<text text-anchor="middle" x="1286" y="-611.4" font-family="Times Roman,serif" font-size="14.00">User</text>
</g>
<!-- Conversation&#45;&gt;User -->
<g id="edge8" class="edge"><title>Conversation&#45;&gt;User</title>
<path fill="none" stroke="#5c6330" d="M1201.86,-678.315C1201.66,-669.282 1203.05,-659.671 1208,-652 1216.32,-639.107 1230.46,-630.609 1244.43,-625.052"/>
<polygon fill="#5c6330" stroke="#5c6330" points="1201.87,-678.536 1198.22,-688.874 1202.29,-683.519 1202.7,-688.502 1202.7,-688.502 1202.7,-688.502 1202.29,-683.519 1207.19,-688.13 1201.87,-678.536 1201.87,-678.536"/>
<polygon fill="#5c6330" stroke="#5c6330" points="1244.58,-624.999 1255.51,-625.899 1249.29,-623.328 1254.01,-621.658 1254.01,-621.658 1254.01,-621.658 1249.29,-623.328 1252.5,-617.416 1244.58,-624.999 1244.58,-624.999"/>
<text text-anchor="middle" x="1240" y="-657.4" font-family="Times Roman,serif" font-size="14.00">watchers</text>
</g>
<!-- Upload -->
<g id="node20" class="node"><title>Upload</title>
<ellipse fill="none" stroke="black" cx="244" cy="-95" rx="44.7575" ry="18.3848"/>
<text text-anchor="middle" x="244" y="-91.4" font-family="Times Roman,serif" font-size="14.00">Upload</text>
</g>
<!-- Conversation&#45;&gt;Upload -->
<g id="edge6" class="edge"><title>Conversation&#45;&gt;Upload</title>
<path fill="none" stroke="#c82207" d="M1124.46,-702.517C936.669,-691.056 483.806,-655.926 355,-578 226.159,-500.052 149,-459.585 149,-309 149,-309 149,-309 149,-171 149,-142.72 174.988,-123.232 199.779,-111.075"/>
<ellipse fill="none" stroke="#c82207" cx="1128.66" cy="-702.771" rx="4" ry="4"/>
<polygon fill="#c82207" stroke="#c82207" points="200.075,-110.94 211.04,-110.863 204.62,-108.856 209.165,-106.772 209.165,-106.772 209.165,-106.772 204.62,-108.856 207.29,-102.681 200.075,-110.94 200.075,-110.94"/>
</g>
<!-- Comment -->
<g id="node33" class="node"><title>Comment</title>
<ellipse fill="none" stroke="black" cx="1541" cy="-171" rx="58.1882" ry="18.3848"/>
<text text-anchor="middle" x="1541" y="-167.4" font-family="Times Roman,serif" font-size="14.00">Comment</text>
</g>
<!-- Conversation&#45;&gt;Comment -->
<g id="edge10" class="edge"><title>Conversation&#45;&gt;Comment</title>
<path fill="none" stroke="#c3a3eb" d="M1291.29,-704.757C1408.53,-699.837 1626.52,-684.129 1805,-634 1878.34,-613.4 1902.14,-617.965 1967,-578 2030.37,-538.951 2050.98,-520.45 2075,-450 2080.45,-434.015 2082.03,-427.357 2075,-412 2064.25,-388.505 2046.14,-394.937 2031,-374 1984.18,-309.262 2026.45,-255.217 1962,-208 1934.07,-187.536 1718.4,-177.133 1607.07,-173.081"/>
<ellipse fill="none" stroke="#c3a3eb" cx="1287.02" cy="-704.931" rx="4" ry="4"/>
<ellipse fill="#c3a3eb" stroke="#c3a3eb" cx="1602.91" cy="-172.932" rx="4" ry="4"/>
<text text-anchor="middle" x="2129.5" y="-427.4" font-family="Times Roman,serif" font-size="14.00">first_comment</text>
</g>
<!-- Conversation&#45;&gt;Comment -->
<g id="edge12" class="edge"><title>Conversation&#45;&gt;Comment</title>
<path fill="none" stroke="#437522" d="M1280.18,-695.833C1422.33,-669.604 1731.69,-589.169 1844,-374 1871.39,-321.521 1899.99,-296.688 1873,-244 1860.52,-219.628 1848.46,-218.087 1823,-208 1785.04,-192.961 1678.45,-181.912 1607.74,-175.974"/>
<ellipse fill="none" stroke="#437522" cx="1275.82" cy="-696.623" rx="4.00001" ry="4.00001"/>
<polygon fill="#437522" stroke="#437522" points="1607.54,-175.958 1597.95,-170.65 1602.56,-175.547 1597.58,-175.135 1597.58,-175.135 1597.58,-175.135 1602.56,-175.547 1597.21,-179.62 1607.54,-175.958 1607.54,-175.958"/>
</g>
<!-- Conversation&#45;&gt;Comment -->
<g id="edge16" class="edge"><title>Conversation&#45;&gt;Comment</title>
<path fill="none" stroke="#70f818" d="M1281.87,-696.909C1327.49,-690.304 1386.83,-680.892 1439,-670 1494.5,-658.411 1896.09,-585.045 1933,-542 1943.83,-529.368 1948,-409.639 1948,-393 1948,-393 1948,-393 1948,-263 1948,-215.361 1901.1,-223.341 1856,-208 1811.6,-192.897 1686.81,-181.51 1608.27,-175.582"/>
<ellipse fill="none" stroke="#70f818" cx="1277.77" cy="-697.499" rx="4.00001" ry="4.00001"/>
<polygon fill="#70f818" stroke="#70f818" points="1607.96,-175.558 1598.32,-170.329 1602.97,-175.187 1597.99,-174.816 1597.99,-174.816 1597.99,-174.816 1602.97,-175.187 1597.65,-179.304 1607.96,-175.558 1607.96,-175.558"/>
<text text-anchor="middle" x="2009.5" y="-427.4" font-family="Times Roman,serif" font-size="14.00">recent_comments</text>
</g>
<!-- Watcher -->
<g id="node35" class="node"><title>Watcher</title>
<ellipse fill="none" stroke="black" cx="792" cy="-171" rx="53.033" ry="18.3848"/>
<text text-anchor="middle" x="792" y="-167.4" font-family="Times Roman,serif" font-size="14.00">Watcher</text>
</g>
<!-- Conversation&#45;&gt;Watcher -->
<g id="edge14" class="edge"><title>Conversation&#45;&gt;Watcher</title>
<path fill="none" stroke="#8108ec" d="M1127.51,-699.745C958.935,-682.692 573.82,-634.359 486,-542 445.764,-499.684 436.172,-461.591 467,-412 487.148,-379.589 510.01,-391.352 544,-374 576.227,-357.548 583.727,-352.361 616,-336 664.933,-311.193 687.79,-320.371 727,-282 753.424,-256.141 745.6,-239.473 765,-208 767.145,-204.52 769.517,-200.946 771.939,-197.455"/>
<ellipse fill="none" stroke="#8108ec" cx="1131.63" cy="-700.159" rx="4" ry="4"/>
<polygon fill="#8108ec" stroke="#8108ec" points="772.135,-197.182 781.618,-191.674 775.047,-193.118 777.96,-189.053 777.96,-189.053 777.96,-189.053 775.047,-193.118 774.302,-186.432 772.135,-197.182 772.135,-197.182"/>
<text text-anchor="middle" x="514" y="-427.4" font-family="Times Roman,serif" font-size="14.00">watcher_tags</text>
</g>
<!-- Notification -->
<g id="node5" class="node"><title>Notification</title>
<ellipse fill="none" stroke="black" cx="2279" cy="-95" rx="67.1751" ry="18.3848"/>
<text text-anchor="middle" x="2279" y="-91.4" font-family="Times Roman,serif" font-size="14.00">Notification</text>
</g>
<!-- AccessToken -->
<g id="node6" class="node"><title>AccessToken</title>
<ellipse fill="none" stroke="black" cx="2473" cy="-355" rx="70.9184" ry="18.3848"/>
<text text-anchor="middle" x="2473" y="-351.4" font-family="Times Roman,serif" font-size="14.00">AccessToken</text>
</g>
<!-- Oauth2Token -->
<g id="node31" class="node"><title>Oauth2Token</title>
<ellipse fill="none" stroke="black" cx="2429" cy="-263" rx="77.0746" ry="18.3848"/>
<text text-anchor="middle" x="2429" y="-259.4" font-family="Times Roman,serif" font-size="14.00">Oauth2Token</text>
</g>
<!-- AccessToken&#45;&gt;Oauth2Token -->
<g id="edge202" class="edge"><title>AccessToken&#45;&gt;Oauth2Token</title>
<path fill="none" stroke="black" d="M2464.1,-336.382C2456.46,-320.421 2445.52,-297.543 2437.89,-281.59"/>
</g>
<!-- Organization -->
<g id="node7" class="node"><title>Organization</title>
<ellipse fill="none" stroke="black" cx="983" cy="-523" rx="75.1594" ry="18.3848"/>
<text text-anchor="middle" x="983" y="-519.4" font-family="Times Roman,serif" font-size="14.00">Organization</text>
</g>
<!-- Organization&#45;&gt;User -->
<g id="edge24" class="edge"><title>Organization&#45;&gt;User</title>
<path fill="none" stroke="#aec1ca" d="M924.697,-540.953C903.432,-550.432 887.535,-563.179 901,-578 923.572,-602.846 1145.78,-611.452 1241.98,-614.029"/>
<polygon fill="#aec1ca" stroke="#aec1ca" points="924.823,-540.901 935.784,-541.254 929.447,-538.997 934.07,-537.093 934.07,-537.093 934.07,-537.093 929.447,-538.997 932.357,-532.932 924.823,-540.901 924.823,-540.901"/>
<polygon fill="#aec1ca" stroke="#aec1ca" points="1241.98,-614.029 1251.86,-618.786 1246.98,-614.158 1251.98,-614.287 1251.98,-614.287 1251.98,-614.287 1246.98,-614.158 1252.09,-609.789 1241.98,-614.029 1241.98,-614.029"/>
<text text-anchor="middle" x="925.5" y="-565.4" font-family="Times Roman,serif" font-size="14.00">admins</text>
</g>
<!-- Organization&#45;&gt;User -->
<g id="edge26" class="edge"><title>Organization&#45;&gt;User</title>
<path fill="none" stroke="#83dabc" d="M972.599,-551.425C971.01,-560.891 971.645,-570.836 978,-578 995.187,-597.376 1160.45,-608.524 1241.55,-612.87"/>
<polygon fill="#83dabc" stroke="#83dabc" points="972.652,-551.208 979.401,-542.565 973.841,-546.352 975.03,-541.495 975.03,-541.495 975.03,-541.495 973.841,-546.352 970.659,-540.425 972.652,-551.208 972.652,-551.208"/>
<polygon fill="#83dabc" stroke="#83dabc" points="1241.96,-612.891 1251.71,-617.908 1246.95,-613.152 1251.95,-613.414 1251.95,-613.414 1251.95,-613.414 1246.95,-613.152 1252.18,-608.92 1241.96,-612.891 1241.96,-612.891"/>
</g>
<!-- Organization&#45;&gt;User -->
<g id="edge30" class="edge"><title>Organization&#45;&gt;User</title>
<path fill="none" stroke="#bffe1f" d="M984.525,-551.756C986.507,-561.424 990.434,-571.415 998,-578 1016.05,-593.705 1165.68,-606.463 1241.83,-612.009"/>
<polygon fill="#bffe1f" stroke="#bffe1f" points="984.483,-551.466 987.51,-540.927 983.769,-546.518 983.056,-541.569 983.056,-541.569 983.056,-541.569 983.769,-546.518 978.602,-542.211 984.483,-551.466 984.483,-551.466"/>
<polygon fill="#bffe1f" stroke="#bffe1f" points="1242.09,-612.028 1251.74,-617.232 1247.08,-612.386 1252.07,-612.743 1252.07,-612.743 1252.07,-612.743 1247.08,-612.386 1252.39,-608.255 1242.09,-612.028 1242.09,-612.028"/>
<text text-anchor="middle" x="1039" y="-565.4" font-family="Times Roman,serif" font-size="14.00">participants</text>
</g>
<!-- Project -->
<g id="node15" class="node"><title>Project</title>
<ellipse fill="none" stroke="black" cx="1082" cy="-431" rx="45.9619" ry="18.3848"/>
<text text-anchor="middle" x="1082" y="-427.4" font-family="Times Roman,serif" font-size="14.00">Project</text>
</g>
<!-- Organization&#45;&gt;Project -->
<g id="edge32" class="edge"><title>Organization&#45;&gt;Project</title>
<path fill="none" stroke="#3b40e3" d="M1008.64,-499.176C1023.13,-485.71 1041.2,-468.911 1055.79,-455.359"/>
<ellipse fill="none" stroke="#3b40e3" cx="1005.49" cy="-502.101" rx="4.00002" ry="4.00002"/>
<polygon fill="#3b40e3" stroke="#3b40e3" points="1056.16,-455.012 1066.55,-451.501 1059.82,-451.609 1063.49,-448.205 1063.49,-448.205 1063.49,-448.205 1059.82,-451.609 1060.42,-444.909 1056.16,-455.012 1056.16,-455.012"/>
</g>
<!-- TaskListTemplate -->
<g id="node17" class="node"><title>TaskListTemplate</title>
<ellipse fill="none" stroke="black" cx="1627" cy="-431" rx="94.7523" ry="18.3848"/>
<text text-anchor="middle" x="1627" y="-427.4" font-family="Times Roman,serif" font-size="14.00">TaskListTemplate</text>
</g>
<!-- Organization&#45;&gt;TaskListTemplate -->
<g id="edge34" class="edge"><title>Organization&#45;&gt;TaskListTemplate</title>
<path fill="none" stroke="#a22852" d="M1055.08,-512.11C1073.02,-509.43 1092.21,-506.587 1110,-504 1260.84,-482.068 1436.58,-457.453 1539.43,-443.141"/>
<ellipse fill="none" stroke="#a22852" cx="1050.9" cy="-512.737" rx="4.00001" ry="4.00001"/>
<polygon fill="#a22852" stroke="#a22852" points="1539.55,-443.124 1550.08,-446.204 1544.5,-442.435 1549.46,-441.746 1549.46,-441.746 1549.46,-441.746 1544.5,-442.435 1548.84,-437.289 1539.55,-443.124 1539.55,-443.124"/>
</g>
<!-- Membership -->
<g id="node27" class="node"><title>Membership</title>
<ellipse fill="none" stroke="black" cx="948" cy="-431" rx="70.2092" ry="18.3848"/>
<text text-anchor="middle" x="948" y="-427.4" font-family="Times Roman,serif" font-size="14.00">Membership</text>
</g>
<!-- Organization&#45;&gt;Membership -->
<g id="edge28" class="edge"><title>Organization&#45;&gt;Membership</title>
<path fill="none" stroke="#08eb9a" d="M973.056,-496.863C968.574,-485.081 963.273,-471.147 958.704,-459.137"/>
<ellipse fill="none" stroke="#08eb9a" cx="974.495" cy="-500.644" rx="4.00001" ry="4.00001"/>
<polygon fill="#08eb9a" stroke="#08eb9a" points="958.628,-458.936 959.278,-447.99 956.85,-454.263 955.072,-449.59 955.072,-449.59 955.072,-449.59 956.85,-454.263 950.866,-451.19 958.628,-458.936 958.628,-458.936"/>
</g>
<!-- SocialNetwork -->
<g id="node8" class="node"><title>SocialNetwork</title>
<ellipse fill="none" stroke="black" cx="2834" cy="-431" rx="82.0244" ry="18.3848"/>
<text text-anchor="middle" x="2834" y="-427.4" font-family="Times Roman,serif" font-size="14.00">SocialNetwork</text>
</g>
<!-- User&#45;&gt;Conversation -->
<g id="edge48" class="edge"><title>User&#45;&gt;Conversation</title>
<path fill="none" stroke="#c83a6c" d="M1283.56,-641.842C1281.61,-651.476 1278.14,-661.939 1272,-670 1267.45,-675.964 1261.65,-681.12 1255.39,-685.529"/>
<ellipse fill="none" stroke="#c83a6c" cx="1284.26" cy="-637.618" rx="4.00001" ry="4.00001"/>
<polygon fill="#c83a6c" stroke="#c83a6c" points="1255.08,-685.723 1244.23,-687.286 1250.86,-688.404 1246.64,-691.084 1246.64,-691.084 1246.64,-691.084 1250.86,-688.404 1249.06,-694.883 1255.08,-685.723 1255.08,-685.723"/>
</g>
<!-- User&#45;&gt;Notification -->
<g id="edge58" class="edge"><title>User&#45;&gt;Notification</title>
<path fill="none" stroke="#d1abc5" d="M1328.38,-614.653C1526.03,-612.73 2351.72,-601.183 2449,-542 2451.34,-540.574 2551.88,-376.506 2553,-374 2565.25,-346.51 2572,-339.098 2572,-309 2572,-309 2572,-309 2572,-171 2572,-126.137 2441.67,-107.31 2354.85,-99.746"/>
<ellipse fill="none" stroke="#d1abc5" cx="1324.26" cy="-614.692" rx="4" ry="4"/>
<polygon fill="#d1abc5" stroke="#d1abc5" points="2354.72,-99.7351 2345.13,-94.4153 2349.74,-99.3173 2344.75,-98.8996 2344.75,-98.8996 2344.75,-98.8996 2349.74,-99.3173 2344.38,-103.384 2354.72,-99.7351 2354.72,-99.7351"/>
</g>
<!-- User&#45;&gt;Organization -->
<g id="edge60" class="edge"><title>User&#45;&gt;Organization</title>
<path fill="none" stroke="#f95c62" d="M1241.89,-611.829C1203.68,-607.764 1147.67,-598.582 1103,-578 1091.21,-572.568 1091.3,-566.385 1080,-560 1067.25,-552.797 1052.82,-546.439 1039.07,-541.116"/>
<polygon fill="#f95c62" stroke="#f95c62" points="1242.22,-611.862 1251.73,-617.324 1247.19,-612.354 1252.17,-612.845 1252.17,-612.845 1252.17,-612.845 1247.19,-612.354 1252.61,-608.367 1242.22,-611.862 1242.22,-611.862"/>
<polygon fill="#f95c62" stroke="#f95c62" points="1039.04,-541.107 1031.26,-533.384 1034.36,-539.352 1029.68,-537.598 1029.68,-537.598 1029.68,-537.598 1034.36,-539.352 1028.1,-541.811 1039.04,-541.107 1039.04,-541.107"/>
<text text-anchor="middle" x="1175" y="-565.4" font-family="Times Roman,serif" font-size="14.00">admin_organizations</text>
</g>
<!-- Person -->
<g id="node10" class="node"><title>Person</title>
<ellipse fill="none" stroke="black" cx="1750" cy="-355" rx="44.0472" ry="18.3848"/>
<text text-anchor="middle" x="1750" y="-351.4" font-family="Times Roman,serif" font-size="14.00">Person</text>
</g>
<!-- User&#45;&gt;Person -->
<g id="edge44" class="edge"><title>User&#45;&gt;Person</title>
<path fill="none" stroke="#69e159" d="M1327.74,-610.821C1357.1,-606.316 1396.3,-597.031 1426,-578 1461.89,-555.003 1450.65,-526.264 1487,-504 1581.71,-445.984 1653.27,-529.334 1731,-450 1747.92,-432.734 1751.83,-404.913 1752,-383.83"/>
<ellipse fill="none" stroke="#69e159" cx="1323.69" cy="-611.401" rx="4.00001" ry="4.00001"/>
<polygon fill="#69e159" stroke="#69e159" points="1752,-383.803 1756.32,-373.721 1751.91,-378.803 1751.82,-373.804 1751.82,-373.804 1751.82,-373.804 1751.91,-378.803 1747.32,-373.888 1752,-383.803 1752,-383.803"/>
</g>
<!-- User&#45;&gt;Project -->
<g id="edge72" class="edge"><title>User&#45;&gt;Project</title>
<path fill="none" stroke="#01e82c" d="M1273.01,-587.952C1266.63,-577.545 1257.93,-566.589 1247,-560 1194.4,-528.304 1155.88,-582.824 1110,-542 1087.01,-521.538 1081.59,-485.208 1080.89,-459.699"/>
<polygon fill="#01e82c" stroke="#01e82c" points="1273.11,-588.122 1274.1,-599.043 1275.56,-592.477 1278.02,-596.832 1278.02,-596.832 1278.02,-596.832 1275.56,-592.477 1281.94,-594.621 1273.11,-588.122 1273.11,-588.122"/>
<polygon fill="#01e82c" stroke="#01e82c" points="1080.89,-459.507 1085.35,-449.487 1080.87,-454.507 1080.85,-449.507 1080.85,-449.507 1080.85,-449.507 1080.87,-454.507 1076.35,-449.527 1080.89,-459.507 1080.89,-459.507"/>
</g>
<!-- User&#45;&gt;Project -->
<g id="edge78" class="edge"><title>User&#45;&gt;Project</title>
<path fill="none" stroke="#fe496c" d="M1299.17,-589.516C1302.42,-579.473 1303.39,-568.366 1297,-560 1278.54,-535.837 1257.81,-556.344 1231,-542 1208.92,-530.185 1166.38,-482.557 1146,-468 1137.54,-461.958 1128.03,-456.035 1118.97,-450.761"/>
<ellipse fill="none" stroke="#fe496c" cx="1297.61" cy="-593.538" rx="4.00001" ry="4.00001"/>
<polygon fill="#fe496c" stroke="#fe496c" points="1118.82,-450.672 1112.36,-441.812 1114.47,-448.197 1110.13,-445.722 1110.13,-445.722 1110.13,-445.722 1114.47,-448.197 1107.9,-449.632 1118.82,-450.672 1118.82,-450.672"/>
<text text-anchor="middle" x="1285.5" y="-519.4" font-family="Times Roman,serif" font-size="14.00">projects_owned</text>
</g>
<!-- TaskList -->
<g id="node18" class="node"><title>TaskList</title>
<ellipse fill="none" stroke="black" cx="1504" cy="-355" rx="50.2046" ry="18.3848"/>
<text text-anchor="middle" x="1504" y="-351.4" font-family="Times Roman,serif" font-size="14.00">TaskList</text>
</g>
<!-- User&#45;&gt;TaskList -->
<g id="edge54" class="edge"><title>User&#45;&gt;TaskList</title>
<path fill="none" stroke="#906854" d="M1325.75,-606.502C1355.84,-599.393 1393.97,-588.718 1406,-578 1421.52,-564.165 1471.04,-439.948 1493.16,-383.135"/>
<ellipse fill="none" stroke="#906854" cx="1321.79" cy="-607.417" rx="4.00001" ry="4.00001"/>
<polygon fill="#906854" stroke="#906854" points="1493.21,-382.991 1501.03,-375.296 1495.02,-378.33 1496.83,-373.668 1496.83,-373.668 1496.83,-373.668 1495.02,-378.33 1492.63,-372.04 1493.21,-382.991 1493.21,-382.991"/>
</g>
<!-- User&#45;&gt;Upload -->
<g id="edge42" class="edge"><title>User&#45;&gt;Upload</title>
<path fill="none" stroke="#028a81" d="M1243.73,-614.327C1124.24,-612.123 785.732,-603.722 678,-578 455.715,-524.928 357.311,-545.267 206,-374 186.072,-351.444 187,-339.098 187,-309 187,-309 187,-309 187,-171 187,-150.543 200.38,-132.069 214.175,-118.458"/>
<ellipse fill="none" stroke="#028a81" cx="1247.94" cy="-614.403" rx="4" ry="4"/>
<polygon fill="#028a81" stroke="#028a81" points="214.454,-118.201 224.853,-114.721 218.126,-114.808 221.799,-111.415 221.799,-111.415 221.799,-111.415 218.126,-114.808 218.746,-108.11 214.454,-118.201 214.454,-118.201"/>
</g>
<!-- AppLink -->
<g id="node23" class="node"><title>AppLink</title>
<ellipse fill="none" stroke="black" cx="1547" cy="-523" rx="50.9117" ry="18.3848"/>
<text text-anchor="middle" x="1547" y="-519.4" font-family="Times Roman,serif" font-size="14.00">AppLink</text>
</g>
<!-- User&#45;&gt;AppLink -->
<g id="edge40" class="edge"><title>User&#45;&gt;AppLink</title>
<path fill="none" stroke="#723be4" d="M1327.55,-609.694C1376.7,-602.976 1455.25,-590.737 1482,-578 1497.4,-570.667 1512.12,-558.773 1523.65,-547.918"/>
<ellipse fill="none" stroke="#723be4" cx="1323.29" cy="-610.268" rx="4.00001" ry="4.00001"/>
<polygon fill="#723be4" stroke="#723be4" points="1523.94,-547.632 1534.23,-543.853 1527.51,-544.135 1531.09,-540.637 1531.09,-540.637 1531.09,-540.637 1527.51,-544.135 1527.94,-537.421 1523.94,-547.632 1523.94,-547.632"/>
</g>
<!-- Card -->
<g id="node24" class="node"><title>Card</title>
<ellipse fill="none" stroke="black" cx="2747" cy="-523" rx="34.1461" ry="18.3848"/>
<text text-anchor="middle" x="2747" y="-519.4" font-family="Times Roman,serif" font-size="14.00">Card</text>
</g>
<!-- User&#45;&gt;Card -->
<g id="edge70" class="edge"><title>User&#45;&gt;Card</title>
<path fill="none" stroke="#ac50f8" d="M1328.34,-613.47C1445.73,-609.127 1785.21,-595.867 2067,-578 2268.56,-565.22 2318.7,-558.423 2520,-542 2584.57,-536.732 2659.44,-530.427 2705,-526.568"/>
<ellipse fill="none" stroke="#ac50f8" cx="1324.28" cy="-613.62" rx="4" ry="4"/>
<ellipse fill="#ac50f8" stroke="#ac50f8" cx="2709.17" cy="-526.215" rx="4" ry="4"/>
</g>
<!-- User&#45;&gt;Membership -->
<g id="edge62" class="edge"><title>User&#45;&gt;Membership</title>
<path fill="none" stroke="#cd23f5" d="M1243.84,-614.167C1147.21,-611.823 916.281,-603.576 893,-578 861.379,-543.262 897.286,-488.65 924.113,-456.682"/>
<ellipse fill="none" stroke="#cd23f5" cx="1247.93" cy="-614.263" rx="4" ry="4"/>
<polygon fill="#cd23f5" stroke="#cd23f5" points="924.154,-456.635 934.097,-452.01 927.423,-452.852 930.692,-449.068 930.692,-449.068 930.692,-449.068 927.423,-452.852 927.287,-446.126 924.154,-456.635 924.154,-456.635"/>
</g>
<!-- Invitation -->
<g id="node29" class="node"><title>Invitation</title>
<ellipse fill="none" stroke="black" cx="764" cy="-355" rx="58.1882" ry="18.3848"/>
<text text-anchor="middle" x="764" y="-351.4" font-family="Times Roman,serif" font-size="14.00">Invitation</text>
</g>
<!-- User&#45;&gt;Invitation -->
<g id="edge68" class="edge"><title>User&#45;&gt;Invitation</title>
<path fill="none" stroke="#2e9534" d="M1243.85,-614.664C1126.4,-613.36 801.545,-607.133 764,-578 705.91,-532.925 734.009,-431.999 752.387,-382.897"/>
<ellipse fill="none" stroke="#2e9534" cx="1247.95" cy="-614.707" rx="4" ry="4"/>
<polygon fill="#2e9534" stroke="#2e9534" points="752.406,-382.848 760.213,-375.146 754.211,-378.185 756.016,-373.522 756.016,-373.522 756.016,-373.522 754.211,-378.185 751.819,-371.897 752.406,-382.848 752.406,-382.848"/>
</g>
<!-- User&#45;&gt;Invitation -->
<g id="edge74" class="edge"><title>User&#45;&gt;Invitation</title>
<path fill="none" stroke="#a63f79" d="M1243.81,-614.473C1130.78,-612.698 827.289,-605.403 792,-578 751.882,-546.847 760.326,-518.789 761,-468 761.38,-439.371 762.301,-406.672 763.023,-383.841"/>
<ellipse fill="none" stroke="#a63f79" cx="1247.93" cy="-614.536" rx="4" ry="4"/>
<polygon fill="#a63f79" stroke="#a63f79" points="763.025,-383.786 767.846,-373.937 763.187,-378.789 763.349,-373.791 763.349,-373.791 763.349,-373.791 763.187,-378.789 758.851,-373.646 763.025,-383.786 763.025,-383.786"/>
<text text-anchor="middle" x="816.5" y="-473.4" font-family="Times Roman,serif" font-size="14.00">sent_invitations</text>
</g>
<!-- User&#45;&gt;Comment -->
<g id="edge56" class="edge"><title>User&#45;&gt;Comment</title>
<path fill="none" stroke="#ea0274" d="M1327.56,-610.554C1372.92,-605.144 1447.42,-594.617 1510,-578 1554.44,-566.199 1565.71,-562.24 1607,-542 1676.54,-507.91 1700.04,-504.57 1755,-450 1816.82,-388.617 1833.49,-366.163 1856,-282 1860.36,-265.685 1866.51,-257.222 1856,-244 1825.53,-205.662 1690.28,-185.673 1607.22,-176.831"/>
<ellipse fill="none" stroke="#ea0274" cx="1323.41" cy="-611.039" rx="4.00001" ry="4.00001"/>
<polygon fill="#ea0274" stroke="#ea0274" points="1607.06,-176.814 1597.58,-171.306 1602.09,-176.298 1597.11,-175.782 1597.11,-175.782 1597.11,-175.782 1602.09,-176.298 1596.65,-180.258 1607.06,-176.814 1607.06,-176.814"/>
</g>
<!-- Page -->
<g id="node34" class="node"><title>Page</title>
<ellipse fill="none" stroke="black" cx="500" cy="-355" rx="34.8574" ry="18.3848"/>
<text text-anchor="middle" x="500" y="-351.4" font-family="Times Roman,serif" font-size="14.00">Page</text>
</g>
<!-- User&#45;&gt;Page -->
<g id="edge64" class="edge"><title>User&#45;&gt;Page</title>
<path fill="none" stroke="#0902e2" d="M1243.51,-614.139C1123.42,-611.422 787.367,-601.76 744,-578 699.409,-553.569 705.157,-527.655 676,-486 653.381,-453.684 657.07,-437.529 627,-412 601.923,-390.711 567.611,-375.947 540.973,-366.787"/>
<ellipse fill="none" stroke="#0902e2" cx="1247.78" cy="-614.234" rx="4" ry="4"/>
<polygon fill="#0902e2" stroke="#0902e2" points="540.669,-366.687 532.586,-359.276 535.922,-365.118 531.174,-363.549 531.174,-363.549 531.174,-363.549 535.922,-365.118 529.762,-367.822 540.669,-366.687 540.669,-366.687"/>
</g>
<!-- User&#45;&gt;Watcher -->
<g id="edge50" class="edge"><title>User&#45;&gt;Watcher</title>
<path fill="none" stroke="#a079f5" d="M1243.66,-614.163C1144.81,-611.79 905.25,-603.447 880,-578 845.473,-543.205 880.065,-516.35 872,-468 855.196,-367.264 818.85,-251.282 801.54,-199.056"/>
<ellipse fill="none" stroke="#a079f5" cx="1247.94" cy="-614.263" rx="4" ry="4"/>
<polygon fill="#a079f5" stroke="#a079f5" points="801.511,-198.969 802.611,-188.058 799.927,-194.226 798.343,-189.484 798.343,-189.484 798.343,-189.484 799.927,-194.226 794.075,-190.909 801.511,-198.969 801.511,-198.969"/>
</g>
<!-- ClientApplication -->
<g id="node38" class="node"><title>ClientApplication</title>
<ellipse fill="none" stroke="black" cx="2346" cy="-523" rx="94.0452" ry="18.3848"/>
<text text-anchor="middle" x="2346" y="-519.4" font-family="Times Roman,serif" font-size="14.00">ClientApplication</text>
</g>
<!-- User&#45;&gt;ClientApplication -->
<g id="edge76" class="edge"><title>User&#45;&gt;ClientApplication</title>
<path fill="none" stroke="#67e5e4" d="M1328.48,-613.297C1427.42,-609.136 1680.88,-597.353 1892,-578 1957.55,-571.992 1973.63,-567.657 2039,-560 2110.51,-551.624 2128.52,-550.646 2200,-542 2218.71,-539.736 2238.76,-537.2 2257.82,-534.736"/>
<ellipse fill="none" stroke="#67e5e4" cx="1324.22" cy="-613.474" rx="4" ry="4"/>
<polygon fill="#67e5e4" stroke="#67e5e4" points="2258.07,-534.704 2268.57,-537.88 2263.03,-534.06 2267.99,-533.417 2267.99,-533.417 2267.99,-533.417 2263.03,-534.06 2267.41,-528.954 2258.07,-534.704 2258.07,-534.704"/>
</g>
<!-- OauthToken -->
<g id="node44" class="node"><title>OauthToken</title>
<ellipse fill="none" stroke="black" cx="2370" cy="-431" rx="70.2092" ry="18.3848"/>
<text text-anchor="middle" x="2370" y="-427.4" font-family="Times Roman,serif" font-size="14.00">OauthToken</text>
</g>
<!-- User&#45;&gt;OauthToken -->
<g id="edge46" class="edge"><title>User&#45;&gt;OauthToken</title>
<path fill="none" stroke="#742db6" d="M1327.9,-611.979C1401.64,-606.484 1559.38,-593.935 1692,-578 1799.53,-565.08 1826.83,-563.358 1933,-542 2070.53,-514.334 2229.67,-471.005 2312.76,-447.501"/>
<ellipse fill="none" stroke="#742db6" cx="1323.74" cy="-612.287" rx="4" ry="4"/>
<polygon fill="#742db6" stroke="#742db6" points="2312.89,-447.464 2323.74,-449.065 2317.7,-446.1 2322.51,-444.735 2322.51,-444.735 2322.51,-444.735 2317.7,-446.1 2321.28,-440.406 2312.89,-447.464 2312.89,-447.464"/>
<text text-anchor="middle" x="2118" y="-519.4" font-family="Times Roman,serif" font-size="14.00">tokens</text>
</g>
<!-- Activity -->
<g id="node49" class="node"><title>Activity</title>
<ellipse fill="none" stroke="black" cx="1297" cy="-355" rx="48.7904" ry="18.3848"/>
<text text-anchor="middle" x="1297" y="-351.4" font-family="Times Roman,serif" font-size="14.00">Activity</text>
</g>
<!-- User&#45;&gt;Activity -->
<g id="edge66" class="edge"><title>User&#45;&gt;Activity</title>
<path fill="none" stroke="#eb33e1" d="M1308.57,-592.643C1320.46,-579.218 1333.83,-561.078 1340,-542 1358.02,-486.28 1331.01,-418.907 1312.32,-382.159"/>
<ellipse fill="none" stroke="#eb33e1" cx="1305.59" cy="-595.89" rx="4.00002" ry="4.00002"/>
<polygon fill="#eb33e1" stroke="#eb33e1" points="1312.2,-381.924 1311.54,-370.979 1309.88,-377.498 1307.55,-373.071 1307.55,-373.071 1307.55,-373.071 1309.88,-377.498 1303.57,-375.164 1312.2,-381.924 1312.2,-381.924"/>
</g>
<!-- TeamboxData -->
<g id="node50" class="node"><title>TeamboxData</title>
<ellipse fill="none" stroke="black" cx="1846" cy="-523" rx="77.7817" ry="18.3848"/>
<text text-anchor="middle" x="1846" y="-519.4" font-family="Times Roman,serif" font-size="14.00">TeamboxData</text>
</g>
<!-- User&#45;&gt;TeamboxData -->
<g id="edge52" class="edge"><title>User&#45;&gt;TeamboxData</title>
<path fill="none" stroke="#d2aeac" d="M1328.11,-612.74C1394.75,-608.684 1528.4,-598.598 1640,-578 1691.12,-568.565 1748.14,-552.932 1789.2,-540.74"/>
<ellipse fill="none" stroke="#d2aeac" cx="1323.92" cy="-612.989" rx="4" ry="4"/>
<polygon fill="#d2aeac" stroke="#d2aeac" points="1789.44,-540.668 1800.32,-542.111 1794.23,-539.234 1799.02,-537.8 1799.02,-537.8 1799.02,-537.8 1794.23,-539.234 1797.73,-533.489 1789.44,-540.668 1789.44,-540.668"/>
</g>
<!-- Person&#45;&gt;Notification -->
<g id="edge82" class="edge"><title>Person&#45;&gt;Notification</title>
<path fill="none" stroke="#4240db" d="M1786.1,-337.257C1880.85,-290.688 2136.27,-165.151 2237.17,-115.558"/>
<ellipse fill="none" stroke="#4240db" cx="1782.41" cy="-339.072" rx="4.00002" ry="4.00002"/>
<polygon fill="#4240db" stroke="#4240db" points="2237.19,-115.551 2248.15,-115.179 2241.67,-113.346 2246.16,-111.14 2246.16,-111.14 2246.16,-111.14 2241.67,-113.346 2244.18,-107.102 2237.19,-115.551 2237.19,-115.551"/>
</g>
<!-- Task -->
<g id="node19" class="node"><title>Task</title>
<ellipse fill="none" stroke="black" cx="1370" cy="-263" rx="33.234" ry="18.3848"/>
<text text-anchor="middle" x="1370" y="-259.4" font-family="Times Roman,serif" font-size="14.00">Task</text>
</g>
<!-- Person&#45;&gt;Task -->
<g id="edge84" class="edge"><title>Person&#45;&gt;Task</title>
<path fill="none" stroke="#adb2c9" d="M1726.17,-332.251C1712.55,-320.621 1694.53,-307.394 1676,-300 1652.07,-290.449 1490.94,-274.326 1412.6,-266.926"/>
<ellipse fill="none" stroke="#adb2c9" cx="1729.48" cy="-335.159" rx="4.00002" ry="4.00002"/>
<polygon fill="#adb2c9" stroke="#adb2c9" points="1412.53,-266.919 1402.99,-261.503 1407.55,-266.452 1402.57,-265.984 1402.57,-265.984 1402.57,-265.984 1407.55,-266.452 1402.15,-270.464 1412.53,-266.919 1412.53,-266.919"/>
</g>
<!-- Email -->
<g id="node11" class="node"><title>Email</title>
<ellipse fill="none" stroke="black" cx="2704" cy="-783" rx="38.1838" ry="18.3848"/>
<text text-anchor="middle" x="2704" y="-779.4" font-family="Times Roman,serif" font-size="14.00">Email</text>
</g>
<!-- PrivateElementMethods -->
<g id="node12" class="node"><title>PrivateElementMethods</title>
<polygon fill="none" stroke="black" stroke-dasharray="1,5" points="3044,-905 2862,-905 2862,-869 3044,-869 3044,-905"/>
<text text-anchor="middle" x="2953" y="-883.4" font-family="Times Roman,serif" font-size="14.00">PrivateElementMethods</text>
</g>
<!-- EmailAddress -->
<g id="node13" class="node"><title>EmailAddress</title>
<ellipse fill="none" stroke="black" cx="3130" cy="-431" rx="75.8684" ry="18.3848"/>
<text text-anchor="middle" x="3130" y="-427.4" font-family="Times Roman,serif" font-size="14.00">EmailAddress</text>
</g>
<!-- Emailer::Incoming -->
<g id="node14" class="node"><title>Emailer::Incoming</title>
<polygon fill="none" stroke="black" stroke-dasharray="1,5" points="3594,-905 3454,-905 3454,-869 3594,-869 3594,-905"/>
<text text-anchor="middle" x="3524" y="-883.4" font-family="Times Roman,serif" font-size="14.00">Emailer::Incoming</text>
</g>
<!-- Project&#45;&gt;Conversation -->
<g id="edge96" class="edge"><title>Project&#45;&gt;Conversation</title>
<path fill="none" stroke="#6228aa" d="M1040.33,-446.384C987.737,-465.978 903.532,-498.026 899,-504 878.507,-531.014 883.621,-564.008 893,-578 944.553,-654.914 1051.09,-686.009 1125.71,-698.555"/>
<ellipse fill="none" stroke="#6228aa" cx="1044.1" cy="-444.982" rx="4.00001" ry="4.00001"/>
<polygon fill="#6228aa" stroke="#6228aa" points="1126.15,-698.624 1135.31,-704.648 1131.08,-699.414 1136.02,-700.205 1136.02,-700.205 1136.02,-700.205 1131.08,-699.414 1136.73,-695.761 1126.15,-698.624 1126.15,-698.624"/>
</g>
<!-- Project&#45;&gt;User -->
<g id="edge94" class="edge"><title>Project&#45;&gt;User</title>
<path fill="none" stroke="#4f28f0" d="M1093.48,-459.051C1106.47,-490.161 1126.76,-536.699 1134,-542 1183.56,-578.263 1224.73,-519.617 1271,-560 1278.56,-566.596 1282.48,-576.589 1284.46,-586.255"/>
<polygon fill="#4f28f0" stroke="#4f28f0" points="1093.38,-458.801 1093.7,-447.84 1091.46,-454.183 1089.55,-449.564 1089.55,-449.564 1089.55,-449.564 1091.46,-454.183 1085.39,-451.288 1093.38,-458.801 1093.38,-458.801"/>
<polygon fill="#4f28f0" stroke="#4f28f0" points="1284.51,-586.543 1281.48,-597.084 1285.22,-591.492 1285.94,-596.441 1285.94,-596.441 1285.94,-596.441 1285.22,-591.492 1290.39,-595.797 1284.51,-586.543 1284.51,-586.543"/>
<text text-anchor="middle" x="1158.5" y="-519.4" font-family="Times Roman,serif" font-size="14.00">admins</text>
</g>
<!-- Project&#45;&gt;Person -->
<g id="edge98" class="edge"><title>Project&#45;&gt;Person</title>
<path fill="none" stroke="#409643" d="M1134.5,-425.027C1259.27,-410.832 1572.38,-375.208 1697.32,-360.994"/>
<ellipse fill="none" stroke="#409643" cx="1130.32" cy="-425.502" rx="4.00001" ry="4.00001"/>
<polygon fill="#409643" stroke="#409643" points="1697.47,-360.977 1707.91,-364.318 1702.43,-360.412 1707.4,-359.846 1707.4,-359.846 1707.4,-359.846 1702.43,-360.412 1706.89,-355.375 1697.47,-360.977 1697.47,-360.977"/>
</g>
<!-- GoogleDoc -->
<g id="node16" class="node"><title>GoogleDoc</title>
<ellipse fill="none" stroke="black" cx="982" cy="-95" rx="63.8479" ry="18.3848"/>
<text text-anchor="middle" x="982" y="-91.4" font-family="Times Roman,serif" font-size="14.00">GoogleDoc</text>
</g>
<!-- Project&#45;&gt;GoogleDoc -->
<g id="edge114" class="edge"><title>Project&#45;&gt;GoogleDoc</title>
<path fill="none" stroke="#c63ad6" d="M1054.96,-408.779C1044.95,-399.126 1034.48,-387.043 1028,-374 986.418,-290.26 981.247,-176.699 981.325,-124.036"/>
<ellipse fill="none" stroke="#c63ad6" cx="1058.16" cy="-411.743" rx="4.00002" ry="4.00002"/>
<polygon fill="#c63ad6" stroke="#c63ad6" points="981.327,-123.755 985.91,-113.793 981.368,-118.755 981.41,-113.755 981.41,-113.755 981.41,-113.755 981.368,-118.755 976.91,-113.718 981.327,-123.755 981.327,-123.755"/>
</g>
<!-- Project&#45;&gt;TaskList -->
<g id="edge106" class="edge"><title>Project&#45;&gt;TaskList</title>
<path fill="none" stroke="#a784e8" d="M1132.01,-421.994C1211.59,-407.661 1366.47,-379.768 1449.05,-364.896"/>
<ellipse fill="none" stroke="#a784e8" cx="1127.94" cy="-422.726" rx="4.00001" ry="4.00001"/>
<polygon fill="#a784e8" stroke="#a784e8" points="1449.15,-364.878 1459.79,-367.534 1454.07,-363.991 1458.99,-363.105 1458.99,-363.105 1458.99,-363.105 1454.07,-363.991 1458.2,-358.676 1449.15,-364.878 1449.15,-364.878"/>
</g>
<!-- Project&#45;&gt;Task -->
<g id="edge124" class="edge"><title>Project&#45;&gt;Task</title>
<path fill="none" stroke="#740b7e" d="M1132.33,-421.788C1153.39,-416.204 1177.27,-407.463 1196,-394 1222.05,-375.268 1212.47,-354.057 1239,-336 1264.49,-318.65 1278.74,-332.407 1306,-318 1321.15,-309.991 1335.83,-297.814 1347.29,-286.952"/>
<ellipse fill="none" stroke="#740b7e" cx="1128.29" cy="-422.803" rx="4.00001" ry="4.00001"/>
<polygon fill="#740b7e" stroke="#740b7e" points="1347.54,-286.709 1357.83,-282.924 1351.11,-283.21 1354.68,-279.71 1354.68,-279.71 1354.68,-279.71 1351.11,-283.21 1351.53,-276.496 1347.54,-286.709 1347.54,-286.709"/>
</g>
<!-- Project&#45;&gt;Upload -->
<g id="edge100" class="edge"><title>Project&#45;&gt;Upload</title>
<path fill="none" stroke="#32606f" d="M1041.12,-415.547C1036.4,-414.165 1031.63,-412.936 1027,-412 902.354,-386.793 576.191,-415.547 456,-374 388.069,-350.518 368.078,-337.982 323,-282 283.904,-233.448 261.121,-162.722 250.772,-123.638"/>
<ellipse fill="none" stroke="#32606f" cx="1045.13" cy="-416.801" rx="4.00001" ry="4.00001"/>
<polygon fill="#32606f" stroke="#32606f" points="250.656,-123.186 252.539,-112.383 249.418,-118.342 248.179,-113.498 248.179,-113.498 248.179,-113.498 249.418,-118.342 243.819,-114.613 250.656,-123.186 250.656,-123.186"/>
</g>
<!-- Divider -->
<g id="node22" class="node"><title>Divider</title>
<ellipse fill="none" stroke="black" cx="499" cy="-263" rx="46.1672" ry="18.3848"/>
<text text-anchor="middle" x="499" y="-259.4" font-family="Times Roman,serif" font-size="14.00">Divider</text>
</g>
<!-- Project&#45;&gt;Divider -->
<g id="edge92" class="edge"><title>Project&#45;&gt;Divider</title>
<path fill="none" stroke="#3bb372" d="M1040.03,-416.004C1035.65,-414.588 1031.25,-413.226 1027,-412 993.235,-402.249 979.878,-412.506 950,-394 921.554,-376.381 930.881,-352.896 902,-336 900.1,-334.889 659.798,-291.78 551.213,-272.34"/>
<ellipse fill="none" stroke="#3bb372" cx="1044.05" cy="-417.335" rx="4.00001" ry="4.00001"/>
<polygon fill="#3bb372" stroke="#3bb372" points="550.972,-272.297 541.921,-266.105 546.05,-271.416 541.128,-270.535 541.128,-270.535 541.128,-270.535 546.05,-271.416 540.335,-274.965 550.972,-272.297 550.972,-272.297"/>
</g>
<!-- Note -->
<g id="node28" class="node"><title>Note</title>
<ellipse fill="none" stroke="black" cx="400" cy="-263" rx="34.8574" ry="18.3848"/>
<text text-anchor="middle" x="400" y="-259.4" font-family="Times Roman,serif" font-size="14.00">Note</text>
</g>
<!-- Project&#45;&gt;Note -->
<g id="edge108" class="edge"><title>Project&#45;&gt;Note</title>
<path fill="none" stroke="#e5e34d" d="M1040.05,-415.933C1035.66,-414.532 1031.26,-413.192 1027,-412 990.652,-401.819 979.722,-406.195 944,-394 890.576,-375.761 884.673,-353.491 831,-336 828.42,-335.159 446.613,-282.732 444,-282 441.221,-281.221 438.387,-280.305 435.564,-279.302"/>
<ellipse fill="none" stroke="#e5e34d" cx="1044.07" cy="-417.256" rx="4.00001" ry="4.00001"/>
<polygon fill="#e5e34d" stroke="#e5e34d" points="435.43,-279.25 427.732,-271.441 430.768,-277.444 426.106,-275.637 426.106,-275.637 426.106,-275.637 430.768,-277.444 424.48,-279.832 435.43,-279.25 435.43,-279.25"/>
</g>
<!-- Project&#45;&gt;Invitation -->
<g id="edge122" class="edge"><title>Project&#45;&gt;Invitation</title>
<path fill="none" stroke="#f38c40" d="M1040.87,-415.723C1036.23,-414.32 1031.54,-413.039 1027,-412 960.255,-396.733 940.683,-409.537 874,-394 852.223,-388.926 828.78,-380.979 809.155,-373.58"/>
<ellipse fill="none" stroke="#f38c40" cx="1044.78" cy="-416.965" rx="4.00001" ry="4.00001"/>
<polygon fill="#f38c40" stroke="#f38c40" points="808.895,-373.48 801.175,-365.692 804.228,-371.686 799.561,-369.892 799.561,-369.892 799.561,-369.892 804.228,-371.686 797.946,-374.093 808.895,-373.48 808.895,-373.48"/>
</g>
<!-- Project&#45;&gt;Comment -->
<g id="edge102" class="edge"><title>Project&#45;&gt;Comment</title>
<path fill="none" stroke="#d61db0" d="M1062.33,-406.553C1043.42,-379.892 1019.91,-336.19 1036,-300 1042.2,-286.055 1124.02,-214.122 1138,-208 1196.69,-182.302 1376.28,-174.441 1474.73,-172.044"/>
<ellipse fill="none" stroke="#d61db0" cx="1064.9" cy="-410.049" rx="4.00002" ry="4.00002"/>
<ellipse fill="#d61db0" stroke="#d61db0" cx="1478.84" cy="-171.948" rx="4" ry="4"/>
<text text-anchor="middle" x="1085.5" y="-305.4" font-family="Times Roman,serif" font-size="14.00">first_comment</text>
</g>
<!-- Project&#45;&gt;Comment -->
<g id="edge104" class="edge"><title>Project&#45;&gt;Comment</title>
<path fill="none" stroke="#b5068a" d="M1094.84,-405.642C1106.09,-382.963 1122.55,-348.666 1135,-318 1154.45,-270.074 1132.43,-240.087 1173,-208 1196.01,-189.804 1373.65,-178.733 1473.46,-173.886"/>
<ellipse fill="none" stroke="#b5068a" cx="1093.02" cy="-409.287" rx="4.00002" ry="4.00002"/>
<polygon fill="#b5068a" stroke="#b5068a" points="1473.48,-173.886 1483.68,-177.904 1478.47,-173.647 1483.46,-173.409 1483.46,-173.409 1483.46,-173.409 1478.47,-173.647 1483.25,-168.914 1473.48,-173.886 1473.48,-173.886"/>
</g>
<!-- Project&#45;&gt;Comment -->
<g id="edge112" class="edge"><title>Project&#45;&gt;Comment</title>
<path fill="none" stroke="#69c80e" d="M1104.47,-407.745C1113.73,-397.705 1124.3,-385.616 1133,-374 1186.82,-302.173 1170.4,-253.098 1248,-208 1285.05,-186.47 1398.61,-177.282 1472.99,-173.497"/>
<ellipse fill="none" stroke="#69c80e" cx="1101.64" cy="-410.784" rx="4.00002" ry="4.00002"/>
<polygon fill="#69c80e" stroke="#69c80e" points="1473.22,-173.486 1483.43,-177.493 1478.22,-173.242 1483.21,-172.998 1483.21,-172.998 1483.21,-172.998 1478.22,-173.242 1482.99,-168.503 1473.22,-173.486 1473.22,-173.486"/>
<text text-anchor="middle" x="1235.5" y="-305.4" font-family="Times Roman,serif" font-size="14.00">recent_comments</text>
</g>
<!-- Project&#45;&gt;Page -->
<g id="edge118" class="edge"><title>Project&#45;&gt;Page</title>
<path fill="none" stroke="#881748" d="M1040.88,-415.68C1036.24,-414.285 1031.55,-413.018 1027,-412 1021.11,-410.682 670.756,-373.223 544.63,-359.761"/>
<ellipse fill="none" stroke="#881748" cx="1044.79" cy="-416.918" rx="4.00001" ry="4.00001"/>
<polygon fill="#881748" stroke="#881748" points="544.481,-359.745 535.015,-354.209 539.509,-359.214 534.537,-358.684 534.537,-358.684 534.537,-358.684 539.509,-359.214 534.059,-363.158 544.481,-359.745 544.481,-359.745"/>
</g>
<!-- Project&#45;&gt;Watcher -->
<g id="edge110" class="edge"><title>Project&#45;&gt;Watcher</title>
<path fill="none" stroke="#e8b869" d="M1039.21,-416.12C1018.82,-408.636 996.949,-399.921 988,-394 957.859,-374.056 960.343,-357.101 931,-336 916.153,-325.323 906.075,-331.733 894,-318 859.94,-279.264 889.789,-247.818 857,-208 851.243,-201.008 843.797,-195.08 836.011,-190.155"/>
<ellipse fill="none" stroke="#e8b869" cx="1043.17" cy="-417.555" rx="4.00001" ry="4.00001"/>
<polygon fill="#e8b869" stroke="#e8b869" points="835.799,-190.032 829.404,-181.123 831.473,-187.524 827.148,-185.016 827.148,-185.016 827.148,-185.016 831.473,-187.524 824.891,-188.909 835.799,-190.032 835.799,-190.032"/>
<text text-anchor="middle" x="941" y="-305.4" font-family="Times Roman,serif" font-size="14.00">watcher_tags</text>
</g>
<!-- Folder -->
<g id="node47" class="node"><title>Folder</title>
<ellipse fill="none" stroke="black" cx="256" cy="-355" rx="41.2167" ry="18.3848"/>
<text text-anchor="middle" x="256" y="-351.4" font-family="Times Roman,serif" font-size="14.00">Folder</text>
</g>
<!-- Project&#45;&gt;Folder -->
<g id="edge120" class="edge"><title>Project&#45;&gt;Folder</title>
<path fill="none" stroke="#20307f" d="M1041.34,-415.465C1036.56,-414.084 1031.71,-412.879 1027,-412 919.671,-391.955 644.943,-401.253 536,-394 443.776,-387.86 420.009,-390.135 329,-374 319.72,-372.355 309.888,-370.133 300.548,-367.789"/>
<ellipse fill="none" stroke="#20307f" cx="1045.45" cy="-416.741" rx="4.00001" ry="4.00001"/>
<polygon fill="#20307f" stroke="#20307f" points="300.335,-367.733 291.788,-360.863 295.495,-366.476 290.656,-365.218 290.656,-365.218 290.656,-365.218 295.495,-366.476 289.524,-369.574 300.335,-367.733 300.335,-367.733"/>
</g>
<!-- Project&#45;&gt;Activity -->
<g id="edge116" class="edge"><title>Project&#45;&gt;Activity</title>
<path fill="none" stroke="#60753c" d="M1132.95,-422.767C1163.08,-416.884 1201.57,-407.577 1234,-394 1244.81,-389.473 1255.91,-383.229 1265.71,-377.063"/>
<ellipse fill="none" stroke="#60753c" cx="1129.01" cy="-423.516" rx="4.00001" ry="4.00001"/>
<polygon fill="#60753c" stroke="#60753c" points="1265.93,-376.923 1276.77,-375.247 1270.12,-374.198 1274.31,-371.474 1274.31,-371.474 1274.31,-371.474 1270.12,-374.198 1271.86,-367.7 1265.93,-376.923 1265.93,-376.923"/>
</g>
<!-- TaskList&#45;&gt;Task -->
<g id="edge132" class="edge"><title>TaskList&#45;&gt;Task</title>
<path fill="none" stroke="#e592b3" d="M1452.33,-343.089C1435.66,-337.455 1417.91,-329.384 1404,-318 1394.98,-310.62 1387.68,-300.18 1382.2,-290.376"/>
<ellipse fill="none" stroke="#e592b3" cx="1456.59" cy="-344.448" rx="4.00001" ry="4.00001"/>
<polygon fill="#e592b3" stroke="#e592b3" points="1382.09,-290.172 1381.49,-279.222 1379.79,-285.731 1377.49,-281.291 1377.49,-281.291 1377.49,-281.291 1379.79,-285.731 1373.5,-283.36 1382.09,-290.172 1382.09,-290.172"/>
<text text-anchor="middle" x="1455.5" y="-305.4" font-family="Times Roman,serif" font-size="14.00">archived_tasks</text>
</g>
<!-- TaskList&#45;&gt;Task -->
<g id="edge140" class="edge"><title>TaskList&#45;&gt;Task</title>
<path fill="none" stroke="#9f3722" d="M1512.25,-328.62C1513.7,-318.753 1513.13,-308.008 1507,-300 1495.48,-284.956 1448.34,-274.633 1412.55,-268.788"/>
<ellipse fill="none" stroke="#9f3722" cx="1511.43" cy="-332.702" rx="4.00001" ry="4.00001"/>
<polygon fill="#9f3722" stroke="#9f3722" points="1412.21,-268.735 1403.02,-262.743 1407.27,-267.962 1402.33,-267.188 1402.33,-267.188 1402.33,-267.188 1407.27,-267.962 1401.63,-271.634 1412.21,-268.735 1412.21,-268.735"/>
<text text-anchor="middle" x="1573.5" y="-305.4" font-family="Times Roman,serif" font-size="14.00">unarchived_tasks</text>
</g>
<!-- TaskList&#45;&gt;Task -->
<g id="edge142" class="edge"><title>TaskList&#45;&gt;Task</title>
<path fill="none" stroke="#00bde0" d="M1452.22,-344.096C1424.73,-337.326 1394.68,-328.023 1385,-318 1378.13,-310.888 1374.34,-300.954 1372.27,-291.483"/>
<ellipse fill="none" stroke="#00bde0" cx="1456.37" cy="-345.092" rx="4.00001" ry="4.00001"/>
<polygon fill="#00bde0" stroke="#00bde0" points="1372.26,-291.409 1375.08,-280.811 1371.45,-286.475 1370.64,-281.542 1370.64,-281.542 1370.64,-281.542 1371.45,-286.475 1366.19,-282.273 1372.26,-291.409 1372.26,-291.409"/>
</g>
<!-- TaskList&#45;&gt;Comment -->
<g id="edge134" class="edge"><title>TaskList&#45;&gt;Comment</title>
<path fill="none" stroke="#d4959e" d="M1561.23,-350.331C1630.3,-344.107 1738.76,-332.206 1751,-318 1773.45,-291.936 1742.25,-268.041 1713,-244 1678.29,-215.466 1630.78,-196.438 1594.49,-184.983"/>
<ellipse fill="none" stroke="#d4959e" cx="1557" cy="-350.708" rx="4" ry="4"/>
<ellipse fill="#d4959e" stroke="#d4959e" cx="1590.28" cy="-183.689" rx="4.00001" ry="4.00001"/>
<text text-anchor="middle" x="1802.5" y="-259.4" font-family="Times Roman,serif" font-size="14.00">first_comment</text>
</g>
<!-- TaskList&#45;&gt;Comment -->
<g id="edge136" class="edge"><title>TaskList&#45;&gt;Comment</title>
<path fill="none" stroke="#a1cb5b" d="M1558.86,-346.711C1591.38,-340.55 1628.13,-330.967 1638,-318 1671.11,-274.505 1597.66,-316.835 1564,-282 1543.06,-260.329 1538.94,-224.869 1539.01,-199.87"/>
<ellipse fill="none" stroke="#a1cb5b" cx="1554.63" cy="-347.483" rx="4.00001" ry="4.00001"/>
<polygon fill="#a1cb5b" stroke="#a1cb5b" points="1539.01,-199.864 1543.76,-189.98 1539.14,-194.865 1539.26,-189.867 1539.26,-189.867 1539.26,-189.867 1539.14,-194.865 1534.76,-189.754 1539.01,-199.864 1539.01,-199.864"/>
</g>
<!-- TaskList&#45;&gt;Comment -->
<g id="edge138" class="edge"><title>TaskList&#45;&gt;Comment</title>
<path fill="none" stroke="#d4740b" d="M1560.18,-348.693C1598.7,-343.079 1644.93,-333.338 1657,-318 1690.66,-275.229 1620.55,-312.119 1586,-282 1579.39,-276.236 1561.94,-229.846 1550.82,-198.89"/>
<ellipse fill="none" stroke="#d4740b" cx="1556.06" cy="-349.273" rx="4.00001" ry="4.00001"/>
<polygon fill="#d4740b" stroke="#d4740b" points="1550.81,-198.871 1551.69,-187.94 1549.13,-194.161 1547.45,-189.452 1547.45,-189.452 1547.45,-189.452 1549.13,-194.161 1543.21,-190.965 1550.81,-198.871 1550.81,-198.871"/>
<text text-anchor="middle" x="1647.5" y="-259.4" font-family="Times Roman,serif" font-size="14.00">recent_comments</text>
</g>
<!-- Task&#45;&gt;User -->
<g id="edge146" class="edge"><title>Task&#45;&gt;User</title>
<path fill="none" stroke="#32eeaf" d="M1370,-291.744C1369.8,-353.108 1368.09,-495.149 1357,-542 1352.97,-559.038 1352.26,-564.59 1341,-578 1335.1,-585.032 1327.53,-591.274 1319.91,-596.536"/>
<polygon fill="#32eeaf" stroke="#32eeaf" points="1370.01,-291.601 1374.53,-281.611 1370.02,-286.601 1370.03,-281.601 1370.03,-281.601 1370.03,-281.601 1370.02,-286.601 1365.53,-281.591 1370.01,-291.601 1370.01,-291.601"/>
<polygon fill="#32eeaf" stroke="#32eeaf" points="1319.45,-596.836 1308.6,-598.469 1315.24,-599.544 1311.04,-602.252 1311.04,-602.252 1311.04,-602.252 1315.24,-599.544 1313.48,-606.035 1319.45,-596.836 1319.45,-596.836"/>
<text text-anchor="middle" x="1400" y="-427.4" font-family="Times Roman,serif" font-size="14.00">watchers</text>
</g>
<!-- Task&#45;&gt;Comment -->
<g id="edge148" class="edge"><title>Task&#45;&gt;Comment</title>
<path fill="none" stroke="#0dbcc9" d="M1329.71,-257.591C1288.29,-250.419 1232.98,-235.358 1257,-208 1271.21,-191.813 1396.33,-180.586 1475.68,-175.022"/>
<ellipse fill="none" stroke="#0dbcc9" cx="1333.84" cy="-258.27" rx="4.00001" ry="4.00001"/>
<ellipse fill="#0dbcc9" stroke="#0dbcc9" cx="1479.7" cy="-174.744" rx="4" ry="4"/>
<text text-anchor="middle" x="1306.5" y="-213.4" font-family="Times Roman,serif" font-size="14.00">first_comment</text>
</g>
<!-- Task&#45;&gt;Comment -->
<g id="edge150" class="edge"><title>Task&#45;&gt;Comment</title>
<path fill="none" stroke="#f091b9" d="M1371.1,-236.089C1372.85,-226.057 1376.53,-215.336 1384,-208 1397.28,-194.95 1439.14,-185.473 1476.29,-179.379"/>
<ellipse fill="none" stroke="#f091b9" cx="1370.56" cy="-240.298" rx="4.00001" ry="4.00001"/>
<polygon fill="#f091b9" stroke="#f091b9" points="1476.74,-179.308 1487.32,-182.195 1481.68,-178.529 1486.62,-177.75 1486.62,-177.75 1486.62,-177.75 1481.68,-178.529 1485.92,-173.305 1476.74,-179.308 1476.74,-179.308"/>
</g>
<!-- Task&#45;&gt;Comment -->
<g id="edge154" class="edge"><title>Task&#45;&gt;Comment</title>
<path fill="none" stroke="#5f3e0c" d="M1380.62,-237.46C1386.17,-226.949 1393.93,-215.503 1404,-208 1416.52,-198.668 1450.24,-189.504 1481.09,-182.631"/>
<ellipse fill="none" stroke="#5f3e0c" cx="1378.74" cy="-241.29" rx="4.00002" ry="4.00002"/>
<polygon fill="#5f3e0c" stroke="#5f3e0c" points="1481.2,-182.607 1491.93,-184.88 1486.09,-181.545 1490.98,-180.483 1490.98,-180.483 1490.98,-180.483 1486.09,-181.545 1490.02,-176.086 1481.2,-182.607 1481.2,-182.607"/>
<text text-anchor="middle" x="1465.5" y="-213.4" font-family="Times Roman,serif" font-size="14.00">recent_comments</text>
</g>
<!-- Task&#45;&gt;Watcher -->
<g id="edge152" class="edge"><title>Task&#45;&gt;Watcher</title>
<path fill="none" stroke="#f5c5be" d="M1330.12,-256.652C1230.06,-240.726 968.014,-199.016 850.498,-180.311"/>
<ellipse fill="none" stroke="#f5c5be" cx="1334.15" cy="-257.294" rx="4.00001" ry="4.00001"/>
<polygon fill="#f5c5be" stroke="#f5c5be" points="850.474,-180.307 841.306,-174.291 845.536,-179.521 840.598,-178.735 840.598,-178.735 840.598,-178.735 845.536,-179.521 839.891,-183.179 850.474,-180.307 850.474,-180.307"/>
<text text-anchor="middle" x="1180" y="-213.4" font-family="Times Roman,serif" font-size="14.00">watcher_tags</text>
</g>
<!-- Upload&#45;&gt;PageSlot -->
<g id="edge158" class="edge"><title>Upload&#45;&gt;PageSlot</title>
<path fill="none" stroke="#b47ade" d="M277.293,-75.8893C291.555,-68.5261 308.664,-60.7506 325,-56 371.023,-42.6158 500.378,-30.2739 577.954,-23.7808"/>
<ellipse fill="none" stroke="#b47ade" cx="273.649" cy="-77.8149" rx="4.00002" ry="4.00002"/>
<ellipse fill="#b47ade" stroke="#b47ade" cx="582.235" cy="-23.4255" rx="4" ry="4"/>
</g>
<!-- NotificationsObserver -->
<g id="node21" class="node"><title>NotificationsObserver</title>
<polygon fill="none" stroke="black" points="3709,-801 3545,-801 3545,-765 3709,-765 3709,-801"/>
<text text-anchor="middle" x="3627" y="-779.4" font-family="Times Roman,serif" font-size="14.00">NotificationsObserver</text>
</g>
<!-- Divider&#45;&gt;PageSlot -->
<g id="edge166" class="edge"><title>Divider&#45;&gt;PageSlot</title>
<path fill="none" stroke="#21b448" d="M530.883,-243.096C539.682,-237.579 549.221,-231.574 558,-226 570.489,-218.07 573.066,-215.181 586,-208 602.338,-198.928 613.326,-205.339 624,-190 654.021,-146.859 649.797,-82.0024 644.264,-45.8249"/>
<ellipse fill="none" stroke="#21b448" cx="527.405" cy="-245.275" rx="4.00002" ry="4.00002"/>
<ellipse fill="#21b448" stroke="#21b448" cx="643.576" cy="-41.6497" rx="4.00001" ry="4.00001"/>
</g>
<!-- VestalVersions::Version -->
<g id="node136" class="node"><title>VestalVersions::Version</title>
<ellipse fill="none" stroke="black" cx="491" cy="-171" rx="123.951" ry="18.3848"/>
<text text-anchor="middle" x="491" y="-167.4" font-family="Times Roman,serif" font-size="14.00">VestalVersions::Version</text>
</g>
<!-- Divider&#45;&gt;VestalVersions::Version -->
<g id="edge164" class="edge"><title>Divider&#45;&gt;VestalVersions::Version</title>
<path fill="none" stroke="#3d6717" d="M496.655,-236.029C495.661,-224.599 494.501,-211.267 493.492,-199.66"/>
<ellipse fill="none" stroke="#3d6717" cx="497.035" cy="-240.397" rx="4" ry="4"/>
<polygon fill="#3d6717" stroke="#3d6717" points="493.483,-199.552 497.1,-189.2 493.05,-194.571 492.617,-189.59 492.617,-189.59 492.617,-189.59 493.05,-194.571 488.133,-189.98 493.483,-199.552 493.483,-199.552"/>
<text text-anchor="middle" x="525" y="-213.4" font-family="Times Roman,serif" font-size="14.00">versions</text>
</g>
<!-- Card&#45;&gt;SocialNetwork -->
<g id="edge172" class="edge"><title>Card&#45;&gt;SocialNetwork</title>
<path fill="none" stroke="#68e414" d="M2752.46,-496.543C2755.48,-486.753 2760.09,-476.084 2767,-468 2772.1,-462.036 2778.41,-456.854 2785.11,-452.411"/>
<ellipse fill="none" stroke="#68e414" cx="2751.33" cy="-500.626" rx="4.00001" ry="4.00001"/>
<polygon fill="#68e414" stroke="#68e414" points="2785.18,-452.366 2796.07,-451.022 2789.46,-449.771 2793.73,-447.176 2793.73,-447.176 2793.73,-447.176 2789.46,-449.771 2791.4,-443.329 2785.18,-452.366 2785.18,-452.366"/>
</g>
<!-- Card&#45;&gt;EmailAddress -->
<g id="edge180" class="edge"><title>Card&#45;&gt;EmailAddress</title>
<path fill="none" stroke="#c59f86" d="M2774.77,-503.833C2794.33,-491.375 2821.63,-476.01 2848,-468 2932.13,-442.448 2958.14,-463.618 3045,-450 3051.83,-448.93 3058.92,-447.637 3065.97,-446.234"/>
<ellipse fill="none" stroke="#c59f86" cx="2771.29" cy="-506.094" rx="4.00002" ry="4.00002"/>
<polygon fill="#c59f86" stroke="#c59f86" points="3066.45,-446.136 3077.15,-448.521 3071.34,-445.125 3076.24,-444.114 3076.24,-444.114 3076.24,-444.114 3071.34,-445.125 3075.33,-439.707 3066.45,-446.136 3066.45,-446.136"/>
</g>
<!-- PhoneNumber -->
<g id="node26" class="node"><title>PhoneNumber</title>
<ellipse fill="none" stroke="black" cx="2653" cy="-431" rx="80.8184" ry="18.3848"/>
<text text-anchor="middle" x="2653" y="-427.4" font-family="Times Roman,serif" font-size="14.00">PhoneNumber</text>
</g>
<!-- Card&#45;&gt;PhoneNumber -->
<g id="edge178" class="edge"><title>Card&#45;&gt;PhoneNumber</title>
<path fill="none" stroke="#3eacf7" d="M2724.08,-500.563C2710.47,-487.251 2693.19,-470.332 2679.07,-456.513"/>
<ellipse fill="none" stroke="#3eacf7" cx="2727.34" cy="-503.754" rx="4.00002" ry="4.00002"/>
<polygon fill="#3eacf7" stroke="#3eacf7" points="2678.74,-456.192 2674.74,-445.981 2675.17,-452.694 2671.59,-449.197 2671.59,-449.197 2671.59,-449.197 2675.17,-452.694 2668.44,-452.413 2678.74,-456.192 2678.74,-456.192"/>
</g>
<!-- Website -->
<g id="node41" class="node"><title>Website</title>
<ellipse fill="none" stroke="black" cx="2985" cy="-431" rx="50.9117" ry="18.3848"/>
<text text-anchor="middle" x="2985" y="-427.4" font-family="Times Roman,serif" font-size="14.00">Website</text>
</g>
<!-- Card&#45;&gt;Website -->
<g id="edge176" class="edge"><title>Card&#45;&gt;Website</title>
<path fill="none" stroke="#9e22e1" d="M2762.25,-498.601C2770.54,-487.438 2781.8,-475.135 2795,-468 2846.32,-440.27 2868.1,-462.85 2925,-450 2929.31,-449.026 2933.76,-447.885 2938.2,-446.654"/>
<ellipse fill="none" stroke="#9e22e1" cx="2759.79" cy="-502.081" rx="4.00002" ry="4.00002"/>
<polygon fill="#9e22e1" stroke="#9e22e1" points="2938.22,-446.647 2949.08,-448.166 2943.02,-445.247 2947.82,-443.847 2947.82,-443.847 2947.82,-443.847 2943.02,-445.247 2946.56,-439.527 2938.22,-446.647 2938.22,-446.647"/>
</g>
<!-- Address -->
<g id="node42" class="node"><title>Address</title>
<ellipse fill="none" stroke="black" cx="3274" cy="-431" rx="50.2046" ry="18.3848"/>
<text text-anchor="middle" x="3274" y="-427.4" font-family="Times Roman,serif" font-size="14.00">Address</text>
</g>
<!-- Card&#45;&gt;Address -->
<g id="edge174" class="edge"><title>Card&#45;&gt;Address</title>
<path fill="none" stroke="#e193a4" d="M2787.84,-516.717C2899.89,-499.466 3204.56,-452.479 3215,-450 3219.12,-449.021 3223.37,-447.894 3227.61,-446.687"/>
<ellipse fill="none" stroke="#e193a4" cx="2783.75" cy="-517.347" rx="4.00001" ry="4.00001"/>
<polygon fill="#e193a4" stroke="#e193a4" points="3227.85,-446.618 3238.71,-448.071 3232.64,-445.188 3237.43,-443.759 3237.43,-443.759 3237.43,-443.759 3232.64,-445.188 3236.14,-439.447 3227.85,-446.618 3227.85,-446.618"/>
</g>
<!-- Im -->
<g id="node48" class="node"><title>Im</title>
<ellipse fill="none" stroke="black" cx="3369" cy="-431" rx="27" ry="18.3848"/>
<text text-anchor="middle" x="3369" y="-427.4" font-family="Times Roman,serif" font-size="14.00">Im</text>
</g>
<!-- Card&#45;&gt;Im -->
<g id="edge182" class="edge"><title>Card&#45;&gt;Im</title>
<path fill="none" stroke="#ebd6d5" d="M2788.71,-519.803C2904.98,-510.574 3230.91,-482.466 3333,-450 3335.13,-449.321 3337.29,-448.52 3339.43,-447.636"/>
<ellipse fill="none" stroke="#ebd6d5" cx="2784.69" cy="-520.12" rx="4" ry="4"/>
<polygon fill="#ebd6d5" stroke="#ebd6d5" points="3339.54,-447.584 3350.51,-447.439 3344.08,-445.472 3348.61,-443.36 3348.61,-443.36 3348.61,-443.36 3344.08,-445.472 3346.71,-439.281 3339.54,-447.584 3339.54,-447.584"/>
</g>
<!-- RoleRecord -->
<g id="node25" class="node"><title>RoleRecord</title>
<ellipse fill="none" stroke="black" cx="424" cy="-783" rx="65.0538" ry="18.3848"/>
<text text-anchor="middle" x="424" y="-779.4" font-family="Times Roman,serif" font-size="14.00">RoleRecord</text>
</g>
<!-- RoleRecord&#45;&gt;Conversation -->
<g id="edge18" class="edge"><title>RoleRecord&#45;&gt;Conversation</title>
<path fill="none" stroke="black" d="M479.011,-772.85C528.742,-764.016 604.047,-751.485 670,-744 834.12,-725.373 1027.6,-714.83 1131.66,-710.087"/>
</g>
<!-- RoleRecord&#45;&gt;GoogleDoc -->
<g id="edge128" class="edge"><title>RoleRecord&#45;&gt;GoogleDoc</title>
<path fill="none" stroke="black" d="M437.106,-764.685C469.709,-718.804 556.42,-594.815 620,-486 657.805,-421.298 637.255,-381.234 697,-336 729.175,-311.64 751.072,-338.215 786,-318 876.337,-265.717 946.397,-156.615 971.734,-113.297"/>
</g>
<!-- RoleRecord&#45;&gt;TaskList -->
<g id="edge144" class="edge"><title>RoleRecord&#45;&gt;TaskList</title>
<path fill="none" stroke="black" d="M489.296,-782.01C727.834,-777.703 1542.03,-756.708 1615,-670 1638.13,-642.516 1786.35,-812.41 1607,-504 1584.69,-465.634 1548,-486.67 1523,-450 1507.37,-427.07 1503.99,-394.233 1503.57,-373.786"/>
</g>
<!-- RoleRecord&#45;&gt;Task -->
<g id="edge156" class="edge"><title>RoleRecord&#45;&gt;Task</title>
<path fill="none" stroke="black" d="M489.057,-781.237C716.747,-774.867 1469.7,-752.037 1575,-726 1748.67,-683.06 1842.05,-696.052 1933,-542 2005.52,-419.155 1881.77,-529.822 1697,-374 1664.84,-346.883 1674.56,-320.807 1638,-300 1617.87,-288.543 1469.65,-272.775 1402.69,-266.141"/>
</g>
<!-- RoleRecord&#45;&gt;Upload -->
<g id="edge160" class="edge"><title>RoleRecord&#45;&gt;Upload</title>
<path fill="none" stroke="black" d="M376.795,-770.112C367.929,-767.91 358.709,-765.766 350,-764 296.489,-753.147 111,-761.601 111,-707 111,-707 111,-707 111,-171 111,-128.582 162.629,-109.519 201.552,-101.174"/>
</g>
<!-- RoleRecord&#45;&gt;Divider -->
<g id="edge168" class="edge"><title>RoleRecord&#45;&gt;Divider</title>
<path fill="none" stroke="black" d="M398.428,-765.84C385.878,-755.852 371.985,-742.066 365,-726 334.696,-656.297 350.78,-504.843 355,-468 357.908,-442.615 356.323,-434.726 368,-412 396.336,-356.854 449.589,-305.594 478.71,-280.018"/>
</g>
<!-- RoleRecord&#45;&gt;Note -->
<g id="edge196" class="edge"><title>RoleRecord&#45;&gt;Note</title>
<path fill="none" stroke="black" d="M375.443,-770.51C366.963,-768.335 358.225,-766.099 350,-764 318.457,-755.952 305.233,-765.277 279,-746 262.599,-733.948 255,-727.352 255,-707 255,-707 255,-707 255,-569 255,-485.647 280.42,-466.898 317,-392 337.57,-349.884 369.086,-304.705 386.776,-280.581"/>
</g>
<!-- RoleRecord&#45;&gt;Invitation -->
<g id="edge198" class="edge"><title>RoleRecord&#45;&gt;Invitation</title>
<path fill="none" stroke="black" d="M424,-764.26C424,-748.878 424,-726.528 424,-707 424,-707 424,-707 424,-569 424,-498.033 638.846,-404.666 726.967,-369.355"/>
</g>
<!-- RoleRecord&#45;&gt;Page -->
<g id="edge226" class="edge"><title>RoleRecord&#45;&gt;Page</title>
<path fill="none" stroke="black" d="M401.629,-765.555C386.402,-751.569 369,-730.453 369,-707 369,-707 369,-707 369,-477 369,-446.205 372.752,-435.202 393,-412 413.344,-388.688 445.605,-373.354 469.389,-364.522"/>
</g>
<!-- RoleRecord&#45;&gt;Folder -->
<g id="edge264" class="edge"><title>RoleRecord&#45;&gt;Folder</title>
<path fill="none" stroke="black" d="M376.773,-770.217C367.909,-768.005 358.696,-765.831 350,-764 287.068,-750.751 217,-771.311 217,-707 217,-707 217,-707 217,-431 217,-409.051 230.035,-387.079 241.033,-372.447"/>
</g>
<!-- Note&#45;&gt;PageSlot -->
<g id="edge194" class="edge"><title>Note&#45;&gt;PageSlot</title>
<path fill="none" stroke="#6a4a19" d="M379.336,-239.712C361.23,-216.336 340.346,-179.887 358,-152 406.964,-74.6539 514.389,-41.4164 581.32,-27.7916"/>
<ellipse fill="none" stroke="#6a4a19" cx="382.07" cy="-243.114" rx="4.00002" ry="4.00002"/>
<ellipse fill="#6a4a19" stroke="#6a4a19" cx="585.35" cy="-26.9982" rx="4.00001" ry="4.00001"/>
</g>
<!-- Note&#45;&gt;VestalVersions::Version -->
<g id="edge192" class="edge"><title>Note&#45;&gt;VestalVersions::Version</title>
<path fill="none" stroke="#312081" d="M411.991,-237.633C417.486,-227.668 424.646,-216.586 433,-208 437.701,-203.169 443.148,-198.669 448.783,-194.59"/>
<ellipse fill="none" stroke="#312081" cx="409.987" cy="-241.436" rx="4.00002" ry="4.00002"/>
<polygon fill="#312081" stroke="#312081" points="448.843,-194.55 459.642,-192.646 452.977,-191.738 457.111,-188.925 457.111,-188.925 457.111,-188.925 452.977,-191.738 454.579,-185.204 448.843,-194.55 448.843,-194.55"/>
<text text-anchor="middle" x="462" y="-213.4" font-family="Times Roman,serif" font-size="14.00">versions</text>
</g>
<!-- EmailBounce -->
<g id="node30" class="node"><title>EmailBounce</title>
<ellipse fill="none" stroke="black" cx="2949" cy="-783" rx="74.2462" ry="18.3848"/>
<text text-anchor="middle" x="2949" y="-779.4" font-family="Times Roman,serif" font-size="14.00">EmailBounce</text>
</g>
<!-- OauthNonce -->
<g id="node32" class="node"><title>OauthNonce</title>
<ellipse fill="none" stroke="black" cx="3114" cy="-783" rx="72.832" ry="18.3848"/>
<text text-anchor="middle" x="3114" y="-779.4" font-family="Times Roman,serif" font-size="14.00">OauthNonce</text>
</g>
<!-- Comment&#45;&gt;Notification -->
<g id="edge208" class="edge"><title>Comment&#45;&gt;Notification</title>
<path fill="none" stroke="#62adb4" d="M1604.59,-164.451C1741.11,-150.392 2061.56,-117.392 2206.06,-102.511"/>
<ellipse fill="none" stroke="#62adb4" cx="1600.45" cy="-164.878" rx="4" ry="4"/>
<polygon fill="#62adb4" stroke="#62adb4" points="2206.21,-102.496 2216.62,-105.948 2211.18,-101.984 2216.16,-101.472 2216.16,-101.472 2216.16,-101.472 2211.18,-101.984 2215.69,-96.9954 2206.21,-102.496 2206.21,-102.496"/>
</g>
<!-- Comment&#45;&gt;GoogleDoc -->
<g id="edge210" class="edge"><title>Comment&#45;&gt;GoogleDoc</title>
<path fill="none" stroke="#b97b59" d="M1479.46,-162.633C1374.03,-148.3 1159.67,-119.155 1049.98,-104.242"/>
<ellipse fill="none" stroke="#b97b59" cx="1483.44" cy="-163.174" rx="4.00001" ry="4.00001"/>
<polygon fill="#b97b59" stroke="#b97b59" points="1049.93,-104.235 1040.62,-98.4289 1044.97,-103.562 1040.02,-102.888 1040.02,-102.888 1040.02,-102.888 1044.97,-103.562 1039.41,-107.347 1049.93,-104.235 1049.93,-104.235"/>
</g>
<!-- Comment&#45;&gt;Upload -->
<g id="edge206" class="edge"><title>Comment&#45;&gt;Upload</title>
<path fill="none" stroke="#c676ef" d="M1475.33,-167.152C1249.42,-153.914 506.829,-110.401 298.675,-98.2038"/>
<ellipse fill="none" stroke="#c676ef" cx="1479.6" cy="-167.402" rx="4" ry="4"/>
<polygon fill="#c676ef" stroke="#c676ef" points="298.578,-98.1982 288.858,-93.1208 293.586,-97.9057 288.595,-97.6131 288.595,-97.6131 288.595,-97.6131 293.586,-97.9057 288.332,-102.105 298.578,-98.1982 298.578,-98.1982"/>
</g>
<!-- Page&#45;&gt;PageSlot -->
<g id="edge224" class="edge"><title>Page&#45;&gt;PageSlot</title>
<path fill="none" stroke="#79756b" d="M521.298,-332.373C559.966,-291.109 638.524,-206.363 647,-190 674.521,-136.87 678.136,-113.02 660,-56 658.938,-52.661 657.548,-49.289 655.989,-46.0109"/>
<ellipse fill="none" stroke="#79756b" cx="518.41" cy="-335.451" rx="4.00002" ry="4.00002"/>
<polygon fill="#79756b" stroke="#79756b" points="655.963,-45.9605 655.252,-35.0176 653.62,-41.5433 651.277,-37.1262 651.277,-37.1262 651.277,-37.1262 653.62,-41.5433 647.302,-39.2347 655.963,-45.9605 655.963,-45.9605"/>
<text text-anchor="middle" x="681" y="-167.4" font-family="Times Roman,serif" font-size="14.00">slots</text>
</g>
<!-- Page&#45;&gt;User -->
<g id="edge218" class="edge"><title>Page&#45;&gt;User</title>
<path fill="none" stroke="#3a9fe6" d="M514.926,-381.787C545.028,-432.534 618.541,-540.924 716,-578 764.626,-596.498 1116.55,-609.532 1241.85,-613.63"/>
<polygon fill="#3a9fe6" stroke="#3a9fe6" points="514.848,-381.653 513.703,-370.747 512.331,-377.332 509.814,-373.012 509.814,-373.012 509.814,-373.012 512.331,-377.332 505.926,-375.277 514.848,-381.653 514.848,-381.653"/>
<polygon fill="#3a9fe6" stroke="#3a9fe6" points="1241.87,-613.63 1251.72,-618.452 1246.87,-613.792 1251.87,-613.954 1251.87,-613.954 1251.87,-613.954 1246.87,-613.792 1252.01,-609.456 1241.87,-613.63 1241.87,-613.63"/>
<text text-anchor="middle" x="623" y="-473.4" font-family="Times Roman,serif" font-size="14.00">watchers</text>
</g>
<!-- Page&#45;&gt;Upload -->
<g id="edge216" class="edge"><title>Page&#45;&gt;Upload</title>
<path fill="none" stroke="#2f9455" d="M461.666,-342.944C430.133,-331.438 385.921,-311.458 356,-282 302.308,-229.138 319.95,-193.908 277,-132 274.203,-127.969 271.016,-123.899 267.751,-120.006"/>
<ellipse fill="none" stroke="#2f9455" cx="465.624" cy="-344.349" rx="4.00001" ry="4.00001"/>
<polygon fill="#2f9455" stroke="#2f9455" points="267.625,-119.862 264.425,-109.373 264.332,-116.1 261.039,-112.337 261.039,-112.337 261.039,-112.337 264.332,-116.1 257.653,-115.3 267.625,-119.862 267.625,-119.862"/>
</g>
<!-- Page&#45;&gt;Divider -->
<g id="edge214" class="edge"><title>Page&#45;&gt;Divider</title>
<path fill="none" stroke="#87fa30" d="M499.707,-328.029C499.583,-316.599 499.438,-303.267 499.312,-291.66"/>
<ellipse fill="none" stroke="#87fa30" cx="499.754" cy="-332.383" rx="4" ry="4"/>
<polygon fill="#87fa30" stroke="#87fa30" points="499.311,-291.589 503.702,-281.541 499.256,-286.59 499.202,-281.59 499.202,-281.59 499.202,-281.59 499.256,-286.59 494.702,-281.639 499.311,-291.589 499.311,-291.589"/>
</g>
<!-- Page&#45;&gt;Note -->
<g id="edge222" class="edge"><title>Page&#45;&gt;Note</title>
<path fill="none" stroke="#d1874d" d="M475.822,-332.756C460.562,-318.717 440.88,-300.61 425.394,-286.362"/>
<ellipse fill="none" stroke="#d1874d" cx="479.178" cy="-335.844" rx="4.00002" ry="4.00002"/>
<polygon fill="#d1874d" stroke="#d1874d" points="425.083,-286.076 420.77,-275.994 421.403,-282.691 417.723,-279.305 417.723,-279.305 417.723,-279.305 421.403,-282.691 414.676,-282.617 425.083,-286.076 425.083,-286.076"/>
</g>
<!-- Page&#45;&gt;Watcher -->
<g id="edge220" class="edge"><title>Page&#45;&gt;Watcher</title>
<path fill="none" stroke="#dbc7b9" d="M539.236,-344.085C555.298,-338.23 573.289,-329.746 587,-318 616.409,-292.805 603.951,-269.608 633,-244 664.107,-216.578 707.256,-197.643 740.756,-185.941"/>
<ellipse fill="none" stroke="#dbc7b9" cx="535.314" cy="-345.443" rx="4.00001" ry="4.00001"/>
<polygon fill="#dbc7b9" stroke="#dbc7b9" points="740.901,-185.892 751.816,-186.948 745.637,-184.289 750.373,-182.686 750.373,-182.686 750.373,-182.686 745.637,-184.289 748.931,-178.423 740.901,-185.892 740.901,-185.892"/>
<text text-anchor="middle" x="680" y="-259.4" font-family="Times Roman,serif" font-size="14.00">watcher_tags</text>
</g>
<!-- CachedFragmentsObservers -->
<g id="node36" class="node"><title>CachedFragmentsObservers</title>
<polygon fill="none" stroke="black" points="3935,-801 3727,-801 3727,-765 3935,-765 3935,-801"/>
<text text-anchor="middle" x="3831" y="-779.4" font-family="Times Roman,serif" font-size="14.00">CachedFragmentsObservers</text>
</g>
<!-- Oauth2Verifier -->
<g id="node37" class="node"><title>Oauth2Verifier</title>
<ellipse fill="none" stroke="black" cx="2124" cy="-355" rx="84.1457" ry="18.3848"/>
<text text-anchor="middle" x="2124" y="-351.4" font-family="Times Roman,serif" font-size="14.00">Oauth2Verifier</text>
</g>
<!-- ClientApplication&#45;&gt;AccessToken -->
<g id="edge240" class="edge"><title>ClientApplication&#45;&gt;AccessToken</title>
<path fill="none" stroke="#dcdaa4" d="M2391.33,-502.142C2412.44,-490.004 2435.76,-472.598 2449,-450 2460.95,-429.595 2467,-403.338 2470.03,-383.601"/>
<ellipse fill="none" stroke="#dcdaa4" cx="2387.78" cy="-504.116" rx="4.00002" ry="4.00002"/>
<polygon fill="#dcdaa4" stroke="#dcdaa4" points="2470.04,-383.57 2475.85,-374.272 2470.72,-378.617 2471.39,-373.663 2471.39,-373.663 2471.39,-373.663 2470.72,-378.617 2466.93,-373.053 2470.04,-383.57 2470.04,-383.57"/>
</g>
<!-- ClientApplication&#45;&gt;Oauth2Verifier -->
<g id="edge234" class="edge"><title>ClientApplication&#45;&gt;Oauth2Verifier</title>
<path fill="none" stroke="#5d5121" d="M2328.6,-497.792C2310.68,-473.319 2280.81,-436.39 2248,-412 2227.2,-396.541 2201.54,-383.886 2178.97,-374.462"/>
<ellipse fill="none" stroke="#5d5121" cx="2330.99" cy="-501.1" rx="4.00002" ry="4.00002"/>
<polygon fill="#5d5121" stroke="#5d5121" points="2178.77,-374.383 2171.2,-366.453 2174.14,-372.503 2169.51,-370.623 2169.51,-370.623 2169.51,-370.623 2174.14,-372.503 2167.81,-374.792 2178.77,-374.383 2178.77,-374.383"/>
</g>
<!-- ClientApplication&#45;&gt;OauthToken -->
<g id="edge236" class="edge"><title>ClientApplication&#45;&gt;OauthToken</title>
<path fill="none" stroke="#28bc95" d="M2352.93,-496.447C2355.95,-484.84 2359.51,-471.21 2362.59,-459.401"/>
<ellipse fill="none" stroke="#28bc95" cx="2351.87" cy="-500.512" rx="4.00001" ry="4.00001"/>
<polygon fill="#28bc95" stroke="#28bc95" points="2362.63,-459.266 2369.5,-450.726 2363.89,-454.428 2365.15,-449.59 2365.15,-449.59 2365.15,-449.59 2363.89,-454.428 2360.8,-448.454 2362.63,-459.266 2362.63,-459.266"/>
<text text-anchor="middle" x="2384" y="-473.4" font-family="Times Roman,serif" font-size="14.00">tokens</text>
</g>
<!-- ClientApplication&#45;&gt;OauthToken -->
<g id="edge238" class="edge"><title>ClientApplication&#45;&gt;OauthToken</title>
<path fill="none" stroke="#a4bb20" d="M2349.12,-496.442C2350.52,-487.329 2352.44,-477.129 2355,-468 2355.83,-465.026 2356.83,-461.966 2357.91,-458.941"/>
<ellipse fill="none" stroke="#a4bb20" cx="2348.55" cy="-500.483" rx="4.00001" ry="4.00001"/>
<polygon fill="#a4bb20" stroke="#a4bb20" points="2357.94,-458.869 2365.74,-451.16 2359.74,-454.205 2361.54,-449.54 2361.54,-449.54 2361.54,-449.54 2359.74,-454.205 2357.34,-447.92 2357.94,-458.869 2357.94,-458.869"/>
</g>
<!-- PendingTasksObserver -->
<g id="node39" class="node"><title>PendingTasksObserver</title>
<polygon fill="none" stroke="black" points="4123,-801 3953,-801 3953,-765 4123,-765 4123,-801"/>
<text text-anchor="middle" x="4038" y="-779.4" font-family="Times Roman,serif" font-size="14.00">PendingTasksObserver</text>
</g>
<!-- ResetPassword -->
<g id="node40" class="node"><title>ResetPassword</title>
<ellipse fill="none" stroke="black" cx="3366" cy="-783" rx="84.8528" ry="18.3848"/>
<text text-anchor="middle" x="3366" y="-779.4" font-family="Times Roman,serif" font-size="14.00">ResetPassword</text>
</g>
<!-- ThreadsObserver -->
<g id="node43" class="node"><title>ThreadsObserver</title>
<polygon fill="none" stroke="black" points="4275,-801 4141,-801 4141,-765 4275,-765 4275,-801"/>
<text text-anchor="middle" x="4208" y="-779.4" font-family="Times Roman,serif" font-size="14.00">ThreadsObserver</text>
</g>
<!-- OauthToken&#45;&gt;AccessToken -->
<g id="edge22" class="edge"><title>OauthToken&#45;&gt;AccessToken</title>
<path fill="none" stroke="black" d="M2393.63,-413.564C2410.26,-401.293 2432.44,-384.929 2449.12,-372.618"/>
</g>
<!-- OauthToken&#45;&gt;Oauth2Verifier -->
<g id="edge232" class="edge"><title>OauthToken&#45;&gt;Oauth2Verifier</title>
<path fill="none" stroke="black" d="M2337.14,-414.462C2321.1,-406.862 2301.35,-398.184 2283,-392 2264.87,-385.891 2221.65,-375.936 2184.83,-367.89"/>
</g>
<!-- RequestToken -->
<g id="node45" class="node"><title>RequestToken</title>
<ellipse fill="none" stroke="black" cx="2305" cy="-355" rx="79.196" ry="18.3848"/>
<text text-anchor="middle" x="2305" y="-351.4" font-family="Times Roman,serif" font-size="14.00">RequestToken</text>
</g>
<!-- OauthToken&#45;&gt;RequestToken -->
<g id="edge256" class="edge"><title>OauthToken&#45;&gt;RequestToken</title>
<path fill="none" stroke="black" d="M2354.27,-412.603C2344.05,-400.653 2330.78,-385.143 2320.59,-373.228"/>
</g>
<!-- Emailer -->
<g id="node46" class="node"><title>Emailer</title>
<polygon fill="none" stroke="black" points="4361,-801 4293,-801 4293,-765 4361,-765 4361,-801"/>
<text text-anchor="middle" x="4327" y="-779.4" font-family="Times Roman,serif" font-size="14.00">Emailer</text>
</g>
<!-- Folder&#45;&gt;Upload -->
<g id="edge260" class="edge"><title>Folder&#45;&gt;Upload</title>
<path fill="none" stroke="#6645ea" d="M254.757,-328.076C252.482,-278.771 247.665,-174.407 245.328,-123.766"/>
<ellipse fill="none" stroke="#6645ea" cx="254.953" cy="-332.306" rx="4" ry="4"/>
<polygon fill="#6645ea" stroke="#6645ea" points="245.316,-123.518 249.35,-113.322 245.086,-118.524 244.855,-113.529 244.855,-113.529 244.855,-113.529 245.086,-118.524 240.36,-113.737 245.316,-123.518 245.316,-123.518"/>
</g>
<!-- Folder&#45;&gt;Folder -->
<g id="edge262" class="edge"><title>Folder&#45;&gt;Folder</title>
<path fill="none" stroke="#79240e" d="M302.256,-361.592C309.809,-360.649 315,-358.451 315,-355 315,-351.836 310.638,-349.726 304.093,-348.67"/>
<ellipse fill="none" stroke="#79240e" cx="298.012" cy="-361.863" rx="4" ry="4"/>
<polygon fill="#79240e" stroke="#79240e" points="303.989,-348.662 294.371,-343.396 299.005,-348.272 294.02,-347.882 294.02,-347.882 294.02,-347.882 299.005,-348.272 293.669,-352.368 303.989,-348.662 303.989,-348.662"/>
</g>
<!-- Object -->
<g id="node51" class="node"><title>Object</title>
<ellipse fill="none" stroke="black" cx="311" cy="-887" rx="43.1335" ry="18.3848"/>
<text text-anchor="middle" x="311" y="-883.4" font-family="Times Roman,serif" font-size="14.00">Object</text>
</g>
<!-- Object&#45;&gt;Ability -->
<g id="edge2" class="edge"><title>Object&#45;&gt;Ability</title>
<path fill="none" stroke="black" d="M311,-868.407C311,-849.36 311,-819.943 311,-801.084"/>
</g>
<!-- ActiveRecord::Base -->
<g id="node53" class="node"><title>ActiveRecord::Base</title>
<ellipse fill="none" stroke="black" cx="2544" cy="-887" rx="104.151" ry="18.3848"/>
<text text-anchor="middle" x="2544" y="-883.4" font-family="Times Roman,serif" font-size="14.00">ActiveRecord::Base</text>
</g>
<!-- ActiveRecord::Base&#45;&gt;PageSlot -->
<g id="edge4" class="edge"><title>ActiveRecord::Base&#45;&gt;PageSlot</title>
<path fill="none" stroke="black" d="M2616.13,-873.573C2678.57,-862.54 2771.41,-847.544 2853,-840 2926.73,-833.183 3517,-857.049 3517,-783 3517,-783 3517,-783 3517,-95 3517,-58.2647 1087.93,-24.882 692.973,-19.6969"/>
</g>
<!-- ActiveRecord::Base&#45;&gt;Notification -->
<g id="edge20" class="edge"><title>ActiveRecord::Base&#45;&gt;Notification</title>
<path fill="none" stroke="black" d="M2617.1,-873.809C2679.55,-863.038 2771.89,-848.289 2853,-840 2928.49,-832.285 3121.48,-844.338 3194,-822 3297.38,-790.158 3424,-501.17 3424,-393 3424,-393 3424,-393 3424,-171 3424,-116.619 2590.83,-99.713 2345.93,-95.9184"/>
</g>
<!-- ActiveRecord::Base&#45;&gt;Organization -->
<g id="edge36" class="edge"><title>ActiveRecord::Base&#45;&gt;Organization</title>
<path fill="none" stroke="black" d="M2439.97,-886.435C2057.72,-883.685 753,-868.068 753,-783 753,-783 753,-783 753,-615 753,-578.176 855.922,-549.449 924.068,-534.465"/>
</g>
<!-- ActiveRecord::Base&#45;&gt;SocialNetwork -->
<g id="edge38" class="edge"><title>ActiveRecord::Base&#45;&gt;SocialNetwork</title>
<path fill="none" stroke="black" d="M2563.59,-868.618C2575.72,-856.365 2590.86,-839.37 2601,-822 2605.75,-813.866 2605,-810.927 2608,-802 2652.32,-670.1 2622.65,-616.892 2704,-504 2724.05,-476.175 2758.17,-457.597 2786.43,-446.149"/>
</g>
<!-- ActiveRecord::Base&#45;&gt;User -->
<g id="edge80" class="edge"><title>ActiveRecord::Base&#45;&gt;User</title>
<path fill="none" stroke="black" d="M2442.13,-883.087C2317.39,-876.772 2100.2,-860.834 1918,-822 1677.48,-770.737 1399.68,-661.478 1313.14,-626.22"/>
</g>
<!-- ActiveRecord::Base&#45;&gt;Person -->
<g id="edge86" class="edge"><title>ActiveRecord::Base&#45;&gt;Person</title>
<path fill="none" stroke="black" d="M2458.67,-876.296C2363.87,-861.962 2224,-832.434 2224,-783 2224,-783 2224,-783 2224,-569 2224,-565.994 2077.65,-413.422 2075,-412 2026.8,-386.129 1869.61,-367.133 1792.89,-359.154"/>
</g>
<!-- ActiveRecord::Base&#45;&gt;Email -->
<g id="edge88" class="edge"><title>ActiveRecord::Base&#45;&gt;Email</title>
<path fill="none" stroke="black" d="M2575.25,-869.326C2597.1,-856.693 2626.77,-838.99 2652,-822 2662.67,-814.814 2674.15,-806.295 2683.6,-799.054"/>
</g>
<!-- ActiveRecord::Base&#45;&gt;EmailAddress -->
<g id="edge90" class="edge"><title>ActiveRecord::Base&#45;&gt;EmailAddress</title>
<path fill="none" stroke="black" d="M2619.54,-874.19C2669.67,-864.002 2736.1,-847.215 2791,-822 2880.81,-780.754 3066.62,-521.636 3117.1,-449.575"/>
</g>
<!-- ActiveRecord::Base&#45;&gt;Project -->
<g id="edge126" class="edge"><title>ActiveRecord::Base&#45;&gt;Project</title>
<path fill="none" stroke="black" d="M2447.94,-879.865C2325.7,-869.831 2122.02,-849.637 2052,-822 1825.89,-732.759 1832.81,-594.01 1607,-504 1519.81,-469.244 1238.2,-443.525 1127.39,-434.51"/>
</g>
<!-- ActiveRecord::Base&#45;&gt;TaskListTemplate -->
<g id="edge130" class="edge"><title>ActiveRecord::Base&#45;&gt;TaskListTemplate</title>
<path fill="none" stroke="black" d="M2445.4,-881.022C2326.38,-871.04 2142,-845.492 2142,-783 2142,-783 2142,-783 2142,-661 2142,-621.077 2110.94,-621.231 2080,-596 2020.27,-547.291 2004.09,-533.779 1933,-504 1857.94,-472.558 1766.6,-452.987 1703.35,-442.12"/>
</g>
<!-- ActiveRecord::Base&#45;&gt;AppLink -->
<g id="edge170" class="edge"><title>ActiveRecord::Base&#45;&gt;AppLink</title>
<path fill="none" stroke="black" d="M2443.74,-881.948C2301.13,-873.721 2047.5,-854.945 1962,-822 1872.51,-787.518 1638.59,-598.362 1567.67,-540.093"/>
</g>
<!-- ActiveRecord::Base&#45;&gt;Card -->
<g id="edge184" class="edge"><title>ActiveRecord::Base&#45;&gt;Card</title>
<path fill="none" stroke="black" d="M2604.27,-871.858C2671.22,-853.23 2770,-819.551 2770,-783 2770,-783 2770,-783 2770,-615 2770,-588.823 2761.13,-559.673 2754.4,-541.341"/>
</g>
<!-- ActiveRecord::Base&#45;&gt;RoleRecord -->
<g id="edge186" class="edge"><title>ActiveRecord::Base&#45;&gt;RoleRecord</title>
<path fill="none" stroke="black" d="M2440.19,-885.675C2054.15,-880.472 713.924,-859.84 526,-822 502.396,-817.247 477.109,-807.612 457.617,-799.108"/>
</g>
<!-- ActiveRecord::Base&#45;&gt;PhoneNumber -->
<g id="edge188" class="edge"><title>ActiveRecord::Base&#45;&gt;PhoneNumber</title>
<path fill="none" stroke="black" d="M2559.27,-868.359C2573.98,-848.481 2594,-815.455 2594,-783 2594,-783 2594,-783 2594,-523 2594,-493.59 2615.63,-466.067 2632.7,-448.928"/>
</g>
<!-- ActiveRecord::Base&#45;&gt;Membership -->
<g id="edge190" class="edge"><title>ActiveRecord::Base&#45;&gt;Membership</title>
<path fill="none" stroke="black" d="M2440.09,-885.909C2066.3,-881.494 808.92,-862.206 749,-802 644.254,-696.754 654.714,-575.638 757,-468 773.81,-450.31 832.497,-440.802 880.43,-435.875"/>
</g>
<!-- ActiveRecord::Base&#45;&gt;EmailBounce -->
<g id="edge200" class="edge"><title>ActiveRecord::Base&#45;&gt;EmailBounce</title>
<path fill="none" stroke="black" d="M2625.02,-875.319C2689.81,-864.806 2782.48,-847.127 2861,-822 2879.62,-816.041 2899.6,-807.383 2915.81,-799.737"/>
</g>
<!-- ActiveRecord::Base&#45;&gt;OauthNonce -->
<g id="edge204" class="edge"><title>ActiveRecord::Base&#45;&gt;OauthNonce</title>
<path fill="none" stroke="black" d="M2622.43,-874.708C2719.05,-859.251 2888.09,-831.183 3032,-802 3041.31,-800.112 3051.18,-797.958 3060.72,-795.795"/>
</g>
<!-- ActiveRecord::Base&#45;&gt;Comment -->
<g id="edge212" class="edge"><title>ActiveRecord::Base&#45;&gt;Comment</title>
<path fill="none" stroke="black" d="M2544,-868.212C2544,-847.384 2544,-812.792 2544,-783 2544,-783 2544,-783 2544,-477 2544,-438.848 2557.02,-430.139 2556,-392 2555.33,-367.084 2558.5,-360.31 2553,-336 2543.23,-292.852 2550.83,-269.954 2515,-244 2440.8,-190.247 1797.68,-175.225 1599.13,-171.849"/>
</g>
<!-- ActiveRecord::Base&#45;&gt;Watcher -->
<g id="edge228" class="edge"><title>ActiveRecord::Base&#45;&gt;Watcher</title>
<path fill="none" stroke="black" d="M2440.21,-885.46C2116.29,-880.283 1126.66,-861.567 808,-822 765.613,-816.737 749.478,-825.785 714,-802 580.164,-712.274 517.209,-619.163 573,-468 597.244,-402.312 606.032,-381.794 659,-336 673.442,-323.515 681.302,-327.253 698,-318 723.554,-303.84 734.983,-304.998 753,-282 774.792,-254.183 784.941,-213.271 789.232,-189.666"/>
</g>
<!-- ActiveRecord::Base&#45;&gt;ClientApplication -->
<g id="edge242" class="edge"><title>ActiveRecord::Base&#45;&gt;ClientApplication</title>
<path fill="none" stroke="black" d="M2481.9,-872.069C2438.39,-857.481 2388,-830.36 2388,-783 2388,-783 2388,-783 2388,-615 2388,-587.61 2372.4,-559.438 2360.22,-541.609"/>
</g>
<!-- ActiveRecord::Base&#45;&gt;ResetPassword -->
<g id="edge246" class="edge"><title>ActiveRecord::Base&#45;&gt;ResetPassword</title>
<path fill="none" stroke="black" d="M2616.46,-873.725C2678.9,-862.825 2771.58,-847.938 2853,-840 3036.3,-822.127 3086.85,-860.278 3267,-822 3289.05,-817.316 3312.56,-808.239 3331.14,-800.02"/>
</g>
<!-- ActiveRecord::Base&#45;&gt;Website -->
<g id="edge248" class="edge"><title>ActiveRecord::Base&#45;&gt;Website</title>
<path fill="none" stroke="black" d="M2615.36,-873.525C2693.85,-856.615 2809,-824.701 2809,-783 2809,-783 2809,-783 2809,-523 2809,-493.785 2820.99,-484.647 2845,-468 2874.95,-447.234 2889.82,-459.51 2925,-450 2932.17,-448.061 2939.77,-445.812 2947.06,-443.554"/>
</g>
<!-- ActiveRecord::Base&#45;&gt;Address -->
<g id="edge250" class="edge"><title>ActiveRecord::Base&#45;&gt;Address</title>
<path fill="none" stroke="black" d="M2620.7,-874.447C2683.15,-864.441 2773.64,-850.427 2853,-840 2933.74,-829.391 3215,-864.436 3215,-783 3215,-783 3215,-783 3215,-523 3215,-493.21 3237.19,-465.357 3254.35,-448.269"/>
</g>
<!-- ActiveRecord::Base&#45;&gt;OauthToken -->
<g id="edge254" class="edge"><title>ActiveRecord::Base&#45;&gt;OauthToken</title>
<path fill="none" stroke="black" d="M2519.53,-868.836C2497.32,-850.064 2468,-818.557 2468,-783 2468,-783 2468,-783 2468,-569 2468,-538.902 2464.69,-529.684 2449,-504 2436.87,-484.147 2428.08,-483.794 2411,-468 2404.24,-461.751 2396.79,-454.986 2390.11,-448.97"/>
</g>
<!-- ActiveRecord::Base&#45;&gt;Im -->
<g id="edge266" class="edge"><title>ActiveRecord::Base&#45;&gt;Im</title>
<path fill="none" stroke="black" d="M2616.46,-873.685C2678.9,-862.762 2771.58,-847.861 2853,-840 3044.72,-821.49 3093.97,-837.007 3286,-822 3373.25,-815.182 3479,-870.512 3479,-783 3479,-783 3479,-783 3479,-523 3479,-478.685 3425.82,-451.517 3393.41,-439.076"/>
</g>
<!-- ActiveRecord::Base&#45;&gt;Activity -->
<g id="edge268" class="edge"><title>ActiveRecord::Base&#45;&gt;Activity</title>
<path fill="none" stroke="black" d="M2443.71,-881.915C2335.57,-874.655 2172.14,-857.982 2122,-822 1992.64,-729.161 2074.65,-611.291 1957,-504 1876.87,-430.924 1835.84,-439.732 1731,-412 1726.33,-410.764 1454.84,-375.475 1343.68,-361.053"/>
</g>
<!-- ActiveRecord::Base&#45;&gt;TeamboxData -->
<g id="edge270" class="edge"><title>ActiveRecord::Base&#45;&gt;TeamboxData</title>
<path fill="none" stroke="black" d="M2446.46,-880.503C2340.63,-871.943 2179.82,-854.075 2128,-822 2006.57,-746.845 2054.76,-647.63 1942,-560 1929.17,-550.026 1913.33,-542.467 1898.24,-536.868"/>
</g>
<!-- ActiveRecord::Observer -->
<g id="node133" class="node"><title>ActiveRecord::Observer</title>
<ellipse fill="none" stroke="black" cx="3934" cy="-887" rx="125.865" ry="18.3848"/>
<text text-anchor="middle" x="3934" y="-883.4" font-family="Times Roman,serif" font-size="14.00">ActiveRecord::Observer</text>
</g>
<!-- ActiveRecord::Observer&#45;&gt;NotificationsObserver -->
<g id="edge162" class="edge"><title>ActiveRecord::Observer&#45;&gt;NotificationsObserver</title>
<path fill="none" stroke="black" d="M3883.65,-869.943C3827.6,-850.955 3737.4,-820.398 3680.21,-801.027"/>
</g>
<!-- ActiveRecord::Observer&#45;&gt;CachedFragmentsObservers -->
<g id="edge230" class="edge"><title>ActiveRecord::Observer&#45;&gt;CachedFragmentsObservers</title>
<path fill="none" stroke="black" d="M3915.59,-868.407C3896.72,-849.36 3867.59,-819.943 3848.91,-801.084"/>
</g>
<!-- ActiveRecord::Observer&#45;&gt;PendingTasksObserver -->
<g id="edge244" class="edge"><title>ActiveRecord::Observer&#45;&gt;PendingTasksObserver</title>
<path fill="none" stroke="black" d="M3952.59,-868.407C3971.64,-849.36 4001.06,-819.943 4019.92,-801.084"/>
</g>
<!-- ActiveRecord::Observer&#45;&gt;ThreadsObserver -->
<g id="edge252" class="edge"><title>ActiveRecord::Observer&#45;&gt;ThreadsObserver</title>
<path fill="none" stroke="black" d="M3979.55,-869.71C4029.62,-850.707 4109.67,-820.323 4160.5,-801.03"/>
</g>
<!-- ActionMailer::Base -->
<g id="node183" class="node"><title>ActionMailer::Base</title>
<ellipse fill="none" stroke="black" cx="4327" cy="-887" rx="101.823" ry="18.3848"/>
<text text-anchor="middle" x="4327" y="-883.4" font-family="Times Roman,serif" font-size="14.00">ActionMailer::Base</text>
</g>
<!-- ActionMailer::Base&#45;&gt;Emailer -->
<g id="edge258" class="edge"><title>ActionMailer::Base&#45;&gt;Emailer</title>
<path fill="none" stroke="black" d="M4327,-868.407C4327,-849.36 4327,-819.943 4327,-801.084"/>
</g>
</g>
</svg>
